<?xml version="1.0" encoding="iso-8859-1"?>
<!-- Generator: Adobe Illustrator 18.0.0, SVG Export Plug-In . SVG Version: 6.00 Build 0)  -->
<!DOCTYPE svg PUBLIC "-//W3C//DTD SVG 1.1//EN" "http://www.w3.org/Graphics/SVG/1.1/DTD/svg11.dtd">
<svg version="1.1" id="Capa_1" xmlns="http://www.w3.org/2000/svg" xmlns:xlink="http://www.w3.org/1999/xlink" x="0px" y="0px"
	 viewBox="0 0 300.454 300.454" style="enable-background:new 0 0 300.454 300.454;" xml:space="preserve">
<g>
	<path d="M299.224,127.423L255.267,25.497c-3.28-7.607-12.107-11.113-19.714-7.833L133.627,61.621
		c-7.606,3.28-11.114,12.106-7.833,19.714l43.957,101.926c3.28,7.608,12.108,11.114,19.714,7.833l101.926-43.957
		C298.997,143.856,302.505,135.03,299.224,127.423z"/>
	<path d="M265.37,195.386l-66.334,28.608c6.215,7.794,10.588,17.109,12.471,27.292l65.743-28.353
		c7.606-3.28,11.114-12.106,7.833-19.714C281.804,195.612,272.977,192.107,265.37,195.386z"/>
	<path d="M60.12,14.911c-1.575-3.652-4.537-6.53-8.234-7.999c-3.697-1.471-7.826-1.411-11.479,0.166L9.063,20.596
		C1.457,23.876-2.051,32.702,1.23,40.309c3.28,7.607,12.109,11.115,19.714,7.833l17.569-7.577l74.479,172.697
		c7.912-6.038,17.311-10.216,27.547-11.882L60.12,14.911z"/>
	<circle cx="150.537" cy="262.583" r="32.02"/>
</g>
<g>
</g>
<g>
</g>
<g>
</g>
<g>
</g>
<g>
</g>
<g>
</g>
<g>
</g>
<g>
</g>
<g>
</g>
<g>
</g>
<g>
</g>
<g>
</g>
<g>
</g>
<g>
</g>
<g>
</g>
</svg>
