<?xml version="1.0" encoding="utf-8"?>
<!-- Generator: Adobe Illustrator 17.0.0, SVG Export Plug-In . SVG Version: 6.00 Build 0)  -->
<!DOCTYPE svg PUBLIC "-//W3C//DTD SVG 1.1//EN" "http://www.w3.org/Graphics/SVG/1.1/DTD/svg11.dtd">
<svg version="1.1" id="Layer_1" xmlns="http://www.w3.org/2000/svg" xmlns:xlink="http://www.w3.org/1999/xlink" x="0px" y="0px"
	 width="283px" height="283px" viewBox="0 0 283 283" enable-background="new 0 0 283 283" xml:space="preserve">
<g id="XMLID_14_">
	<polygon id="XMLID_56_" fill="#404041" points="212.289,212.289 212.289,212.289 191.076,191.076 141.579,240.574 57.584,156.579 
		141.579,156.579 141.579,156.579 141.579,156.579 141.579,126.579 57.584,126.579 141.579,42.584 191.076,92.081 191.076,92.081 
		191.076,92.081 212.289,70.868 141.579,0.157 0.157,141.579 141.579,283 212.289,212.289 212.289,212.289 	"/>
	<polygon id="XMLID_20_" fill="#E03838" points="261.787,120.369 219.36,77.943 198.147,99.156 225.57,126.579 151.579,126.579 
		151.579,156.579 225.578,156.579 198.147,184.009 219.36,205.222 283,141.583 	"/>
</g>
</svg>
