<?xml version="1.0" standalone="no"?>
<!DOCTYPE svg PUBLIC "-//W3C//DTD SVG 1.1//EN" "http://www.w3.org/Graphics/SVG/1.1/DTD/svg11.dtd" >
<svg xmlns="http://www.w3.org/2000/svg" xmlns:xlink="http://www.w3.org/1999/xlink" version="1.1">
<metadata>
Created by FontForge 20150318 at Mon Jul  6 14:31:41 2015
 By uniteet7
Copyright (c) 1986-1992 SWFTE International, Ltd. All rights reserved
</metadata>
<defs>
<font id="681" horiz-adv-x="500" >
  <font-face 
    font-family="681"
    font-weight="400"
    font-stretch="normal"
    units-per-em="1000"
    panose-1="0 0 0 0 0 0 0 0 0 0"
    ascent="800"
    descent="-200"
    x-height="527"
    cap-height="719"
    bbox="-94 -234 1333 964"
    underline-thickness="50"
    underline-position="-75"
    unicode-range="U+0020-F002"
  />
<missing-glyph horiz-adv-x="766" 
d="M47 0v766h672v-766h-672zM672 47v672h-578v-672h578z" />
    <glyph glyph-name=".notdef" horiz-adv-x="766" 
d="M47 0v766h672v-766h-672zM672 47v672h-578v-672h578z" />
    <glyph glyph-name=".null" horiz-adv-x="0" 
 />
    <glyph glyph-name="nonmarkingreturn" horiz-adv-x="296" 
 />
    <glyph glyph-name="space" unicode=" " horiz-adv-x="296" 
 />
    <glyph glyph-name="exclam" unicode="!" horiz-adv-x="313" 
d="M232 0h-152v129h152v-129zM230 184h-150v535h150v-535z" />
    <glyph glyph-name="quotedbl" unicode="&#x22;" horiz-adv-x="330" 
d="M133 430h-94v271h94v-271zM293 430h-96v271h96v-271z" />
    <glyph glyph-name="numbersign" unicode="#" horiz-adv-x="770" 
d="M129 512h144l73 203h107l-70 -203h119l70 203h110l-73 -203h137l-35 -98h-137l-41 -117h143l-35 -100h-143l-72 -201h-108l73 201h-120l-74 -201h-105l70 201h-141l38 100h138l41 117h-144zM426 295l43 119h-123l-43 -119h123z" />
    <glyph glyph-name="dollar" unicode="$" horiz-adv-x="752" 
d="M398 289v-162h23q67 0 101.5 16.5t34.5 71.5q0 45 -26.5 60.5t-73.5 15.5l-27 -1h-18zM342 0h-272v127h272v162h-29h-26q-57 0 -104 9q-46 11 -79 39t-48 72t-15 93q0 52 21 102.5t49.5 69.5t48 27t51 13.5t83.5 5.5h26l22 -1v64h56v-64h270v-129h-270v-172h42
q34 0 62 -1t59.5 -4.5t69 -24t58 -62t20.5 -111.5q0 -33 -8.5 -68.5t-26.5 -63.5t-45 -48q-34 -21 -75 -29q-41 -6 -92 -6h-29h-35v-70h-56v70zM312 418h30v172q-66 0 -107.5 -16t-41.5 -74q0 -51 31.5 -66.5t87.5 -15.5z" />
    <glyph glyph-name="percent" unicode="%" horiz-adv-x="922" 
d="M275 438q24 26 24 86q0 28 -6 51.5t-17 35t-26.5 18t-21.5 7.5t-16 1q-40 0 -64 -26q-23 -28 -23 -87q0 -58 23.5 -85.5t63.5 -27.5t63 27zM143 336q-85 22 -104 82t-19 106t12.5 85.5t40.5 66t58 34t45.5 9.5t35.5 2q32 0 93.5 -14.5t79 -78t17.5 -104.5q0 -19 -3 -40.5
t-17.5 -75.5t-102.5 -72q-33 -9 -68 -9t-68 9zM635 717l-280 -717h-78l280 717h78zM643 0q-43 12 -71 38t-40 64.5t-12 85.5t14.5 95t63.5 75.5t112 27.5q38 0 69 -7q44 -12 72 -39.5t39.5 -68.5t11.5 -83t-11 -83q-27 -84 -85 -98t-95 -14t-68 7zM775 102q24 27 24 87
q0 61 -23.5 87.5t-64.5 26.5q-40 0 -57 -19t-23 -43t-6 -52q0 -26 6 -49.5t23 -43.5t57 -20q41 0 64 26z" />
    <glyph glyph-name="ampersand" unicode="&#x26;" horiz-adv-x="805" 
d="M775 418v-123h-89q-19 -76 -52 -140.5t-104.5 -116.5t-204.5 -52q-55 0 -112 13t-101 54.5t-53 98.5l-3 39q0 52 25 90q23 38 71 71q-14 11 -30 25t-27 25t-23 39q-17 46 -17 89l2 33q12 80 71 118t143 38h243v-133h-203q-45 0 -76.5 -21t-31.5 -60l2 -23q9 -40 38 -52
t76 -12h25v-123h-25q-14 0 -22.5 -0.5t-27.5 -3.5q-20 -5 -35.5 -19t-20.5 -43q-2 -5 -2 -19q0 -32 19 -57t49 -34q28 -5 47 -5q79 0 120 36t51 59.5t17.5 43.5t12.5 42h-99v123h347z" />
    <glyph glyph-name="quotesingle" unicode="'" horiz-adv-x="197" 
d="M96 498v96h-57v125h119l1 -19v-24l1 -34q0 -17 -1 -27t-5 -30t-19 -43.5t-39 -43.5z" />
    <glyph glyph-name="parenleft" unicode="(" horiz-adv-x="348" 
d="M215 719h94q-19 -34 -36 -69t-31 -70t-24 -68t-20 -82.5t-10 -134.5q0 -45 1.5 -62t6 -47.5t9.5 -54t18 -68t33 -86.5q13 -31 21.5 -46.5t31.5 -57.5h-94q-53 74 -88 144t-51.5 138t-16.5 141q0 208 156 423z" />
    <glyph glyph-name="parenright" unicode=")" horiz-adv-x="348" 
d="M39 719h94q156 -215 156 -423q0 -103 -39 -209t-117 -214h-94q17 29 29.5 54t30.5 65.5t39.5 114t21.5 188.5q0 114 -21.5 189.5t-39.5 115t-32 67.5t-28 52z" />
    <glyph glyph-name="asterisk" unicode="*" 
d="M207 467l-92 -55l-41 72l94 53l-94 55l41 70l92 -53v110h86v-110l92 53l41 -70l-94 -55l94 -53l-41 -72l-92 55v-110h-86v110z" />
    <glyph glyph-name="plus" unicode="+" horiz-adv-x="832" 
d="M123 348h244v248h100v-248h242v-98h-242v-250h-100v250h-244v98z" />
    <glyph glyph-name="comma" unicode="," horiz-adv-x="197" 
d="M96 -94v94h-57v125h119l1 -19v-24l1 -33q0 -48 -13 -77q-12 -32 -51 -66z" />
    <glyph glyph-name="hyphen" unicode="-" horiz-adv-x="387" 
d="M361 207h-336v125h336v-125z" />
    <glyph glyph-name="hyphen" unicode="&#xad;" horiz-adv-x="387" 
d="M361 207h-336v125h336v-125z" />
    <glyph glyph-name="period" unicode="." horiz-adv-x="197" 
d="M158 0h-119v125h119v-125z" />
    <glyph glyph-name="slash" unicode="/" horiz-adv-x="420" 
d="M424 727l-356 -819h-72l352 819h76z" />
    <glyph glyph-name="zero" unicode="0" horiz-adv-x="773" 
d="M531 162q8 10 16 22.5t17 34.5t17 62q4 36 4.5 52t0.5 25l-3 60q-3 31 -10 54l-17 46q-8 13 -12 19t-19 23.5t-53.5 32.5t-84.5 15q-45 0 -84.5 -14.5t-64.5 -42.5t-38.5 -77.5t-13.5 -116.5q0 -65 13.5 -115t39.5 -78t66.5 -42t81.5 -14q42 0 81 13.5t63 40.5zM258 4
q-55 14 -95.5 39t-70 65t-47.5 104t-18 146q0 83 18.5 147t47 103.5t60 59.5t55 29.5t68 19.5t111.5 10t139 -17t123.5 -64.5t74.5 -127t23 -160.5q0 -80 -23 -159.5t-74.5 -127t-123.5 -65t-139 -17.5t-129 15z" />
    <glyph glyph-name="one" unicode="1" horiz-adv-x="264" 
d="M211 0h-158v719h158v-719z" />
    <glyph glyph-name="two" unicode="2" horiz-adv-x="682" 
d="M656 0h-629v217q0 42 5 66t11 39.5t22 36t61.5 45t158.5 24.5h43h18l17 -1l45 1q37 0 59 21.5t22 56.5l-1 19q-5 32 -20 46q-14 16 -38 19.5t-59 3.5h-344v125h377h35q86 0 129 -26q23 -10 40.5 -29.5t28.5 -40.5q4 -11 8 -22.5t8.5 -31.5t4.5 -46l1 -7v-9
q0 -50 -14 -88.5t-40.5 -65t-69.5 -40.5t-92 -14h-136q-54 0 -79 -16t-32 -41.5t-7 -74.5v-44h467v-123z" />
    <glyph glyph-name="three" unicode="3" horiz-adv-x="633" 
d="M373 0h-359v123h295q54 0 85.5 19.5t31.5 68.5q0 48 -33 68t-84 20h-239v123h235q53 0 85 18q32 20 32 68q0 88 -117 88h-291v123h343q46 0 82.5 -6.5t81 -26t60 -77t15.5 -84.5q0 -33 -12 -62.5t-35.5 -56t-50.5 -47.5q17 -10 32 -21t32 -29.5t26 -50.5t9 -65t-12.5 -81
t-57.5 -72t-78.5 -32t-75.5 -8z" />
    <glyph glyph-name="four" unicode="4" horiz-adv-x="773" 
d="M645 0h-153v131h-461v139l422 449h192v-465h97v-123h-97v-131zM203 254h289v310z" />
    <glyph glyph-name="five" unicode="5" horiz-adv-x="686" 
d="M414 0h-383v123h350q50 0 78.5 19.5t28.5 70.5t-28.5 70.5t-78.5 19.5h-350v416h598v-123h-438v-170h256q63 0 114.5 -24.5t78 -73t26.5 -115.5q0 -213 -252 -213z" />
    <glyph glyph-name="six" unicode="6" horiz-adv-x="727" 
d="M203 414h258q115 0 181.5 -43.5t66.5 -150.5v-21q0 -38 -13.5 -69t-49 -66.5t-104 -54.5t-148.5 -19q-52 0 -113 9t-112.5 40t-81.5 77t-44 104t-14 124v30.5t5 65.5t33.5 111.5t77 97t113.5 53.5t154 17h258v-123h-262q-72 0 -113.5 -16.5t-63.5 -54t-28 -111.5z
M451 293h-248q0 -28 4.5 -50t14.5 -46q13 -39 57.5 -62.5t116.5 -23.5q48 0 86 12q28 7 44 33t16 53q0 34 -23 60q-24 24 -68 24z" />
    <glyph glyph-name="seven" unicode="7" horiz-adv-x="635" 
d="M205 0h-191l447 596h-461v123h637v-123z" />
    <glyph glyph-name="eight" unicode="8" horiz-adv-x="736" 
d="M424 596h-110q-117 0 -117 -88q0 -48 32 -68q32 -18 85 -18h110q52 0 83.5 18.5t31.5 67.5t-31.5 68.5t-83.5 19.5zM424 299h-111q-51 0 -84.5 -20t-33.5 -68q0 -50 32 -68q15 -10 37 -15t49 -5h111q115 0 115 88t-115 88zM131 359q-49 39 -73 80t-24 88q0 31 14.5 84.5
t73.5 79.5q14 8 33 12.5t30.5 7t33 5.5t51.5 3h195q83 0 145 -26.5t76 -77t14 -79.5q0 -44 -13 -77t-32.5 -54.5t-49.5 -45.5q40 -20 63.5 -42.5t32.5 -60.5q9 -26 9 -64q0 -33 -13.5 -82t-70.5 -79.5t-140 -30.5h-238q-82 0 -139 31t-71 78t-14 79q0 35 9 68
q7 20 14.5 34.5t25.5 32.5t58 36z" />
    <glyph glyph-name="nine" unicode="9" horiz-adv-x="727" 
d="M521 303h-255q-114 0 -181 45t-67 150v20q0 37 13 68.5t47 67t86 50t87.5 19.5t77.5 5q54 0 127.5 -11.5t130.5 -59t83 -116.5t26 -162l-3 -65q0 -39 -9.5 -76.5t-31 -83t-70.5 -83t-98.5 -50.5t-87 -17t-83.5 -4h-256v123h259q103 0 139.5 31.5t51 67t14.5 81.5z
M275 426h246q0 52 -17 95q-14 40 -53 59q-44 25 -127 25q-47 0 -82 -9q-27 -9 -42 -34q-16 -23 -16 -52q0 -25 9.5 -42.5t30 -29.5t51.5 -12z" />
    <glyph glyph-name="colon" unicode=":" horiz-adv-x="213" 
d="M164 268h-117v125h117v-125zM164 0h-117v125h117v-125z" />
    <glyph glyph-name="semicolon" unicode=";" horiz-adv-x="213" 
d="M102 -94v94h-55v125h117l1 -19v-24l1 -34q0 -47 -13 -76q-12 -32 -51 -66zM164 268h-117v125h117v-125z" />
    <glyph glyph-name="less" unicode="&#x3c;" horiz-adv-x="832" 
d="M129 250v98l574 234v-105l-435 -178l435 -180v-105z" />
    <glyph glyph-name="equal" unicode="=" horiz-adv-x="832" 
d="M709 355h-586v96h586v-96zM709 145h-586v97h586v-97z" />
    <glyph glyph-name="greater" unicode="&#x3e;" horiz-adv-x="832" 
d="M566 299l-437 178v105l574 -234v-98l-574 -236v105z" />
    <glyph glyph-name="question" unicode="?" horiz-adv-x="693" 
d="M203 195v-17h-164q0 25 0.5 39.5t4 47t20.5 66t49 56.5q35 23 80.5 31.5t98.5 8.5h49h22l19 -1h14q98 0 98 90q0 48 -31.5 63t-85.5 15h-352v125h383h20q23 0 44 -1t47 -4.5t55 -20.5q43 -22 65.5 -69t22.5 -103l1 -20q0 -98 -54.5 -151t-161.5 -53h-127q-61 0 -89 -23
t-28 -79zM203 0h-162v127h162v-127z" />
    <glyph glyph-name="at" unicode="@" horiz-adv-x="1000" 
d="M568 236l26 106q-6 40 -27.5 61t-53.5 21q-40 0 -76 -35t-50 -86.5t-14 -85.5q0 -45 21 -69t53 -24q26 0 43 9.5t28.5 20t26 29.5t23.5 53zM570 133q-28 -39 -63 -59.5t-77 -20.5q-53 0 -89.5 20t-55 57t-18.5 88l1 22q2 23 7 45.5t17.5 56t39.5 68t65 56.5t83 26l22 1
q76 0 115 -63l28 49h85l-72 -293l-2 -19q0 -36 38 -36q22 0 54 16q30 18 56.5 47.5t44 79.5t17.5 99q0 60 -30 122.5t-87.5 93.5t-97 42.5t-85.5 11.5l-22 1q-97 0 -172.5 -32.5t-130 -90t-75 -110.5t-27.5 -86.5t-7 -71.5q0 -70 20.5 -118t37 -69t25.5 -31.5t33.5 -29.5
t51 -33.5t77.5 -30t122 -15.5q39 0 81 7t69.5 15t47.5 16.5t47 21.5t57 34l39 -57q-108 -79 -191.5 -96.5t-148.5 -17.5q-67 0 -129 15t-120 45t-92 64.5t-55 67.5t-40.5 84t-19.5 129q0 41 6 72.5t9.5 46.5t13.5 44t29 63.5t49 71t74 70.5t96 56t93 30.5t70 11.5t59 3
q42 0 92 -7.5t104 -30t98 -57t74.5 -84t39.5 -110.5q3 -11 4 -25t1 -34q0 -53 -17.5 -108.5t-50 -101t-81.5 -75.5q-26 -18 -63 -29t-70 -11q-32 0 -68 15.5t-36 67.5z" />
    <glyph glyph-name="A" unicode="A" horiz-adv-x="723" 
d="M137 0h-160l302 719h160l307 -719h-168l-66 172h-313zM248 299h215l-109 275z" />
    <glyph glyph-name="B" unicode="B" horiz-adv-x="756" 
d="M469 0h-395v719h369q56 0 95.5 -7t91.5 -28t65 -77.5t13 -85.5q0 -102 -106 -162q35 -17 60 -41t37 -52.5t12 -64.5q0 -30 -10 -75t-35.5 -66.5t-46 -32t-59 -19t-91.5 -8.5zM225 297v-170h222q49 0 74.5 19.5t25.5 64.5q0 86 -100 86h-222zM445 590h-220v-166h220
q48 0 74 19t26 63q0 84 -100 84z" />
    <glyph glyph-name="C" unicode="C" horiz-adv-x="654" 
d="M617 719v-123h-248q-66 0 -105 -31.5t-50 -70t-16 -71t-5 -64.5v-13l-1 -11q0 -14 1 -30.5t4 -40t13.5 -50.5t29.5 -50q25 -26 54 -32.5t75 -6.5h248v-125h-254q-72 0 -122.5 12.5t-101.5 50.5q-61 52 -86.5 125t-25.5 158l2 43q0 39 8 76t20 70t28 58t47 56t75 45.5
t82.5 19.5t77.5 5h250z" />
    <glyph glyph-name="D" unicode="D" horiz-adv-x="771" 
d="M406 0h-332v719h328q112 0 183 -35.5t101 -92.5t42 -102.5t12 -99.5l2 -44q0 -189 -79 -254.5t-131.5 -78t-125.5 -12.5zM400 594h-175v-469h175q46 0 75 6.5t54 32.5q30 34 38.5 83.5t8.5 111.5q0 60 -8.5 110t-34.5 80t-48.5 35.5t-42.5 7.5t-42 2z" />
    <glyph glyph-name="E" unicode="E" horiz-adv-x="676" 
d="M617 719v-125h-248q-81 0 -125.5 -42.5t-44.5 -125.5h418v-125h-418q0 -90 33 -126.5t61.5 -43t75.5 -6.5h248v-125h-254q-72 0 -122.5 12.5t-101.5 50.5q-61 52 -86.5 125t-25.5 158l2 43q0 39 8 76t20 70t28 58t47 56t75 45.5t82.5 19.5t77.5 5h250z" />
    <glyph glyph-name="F" unicode="F" horiz-adv-x="678" 
d="M221 0h-153v330q0 75 7 131.5t28.5 119t95.5 100.5t223 38h230v-125h-244q-44 0 -82 -10q-35 -11 -56.5 -30t-30.5 -44.5t-13.5 -47.5t-4.5 -44h431v-123h-431v-295z" />
    <glyph glyph-name="G" unicode="G" horiz-adv-x="742" 
d="M537 131v168h-201v127h355v-426h-324h-11h-47q-19 3 -32.5 4.5t-30.5 6t-47 15.5t-75.5 50t-71 112t-25.5 158l2 43q0 53 12 98t32 83t47.5 66.5t81 55.5t165.5 27h324v-125h-324q-66 0 -103 -30.5t-52 -82.5t-15 -116v-11q0 -105 35.5 -164t134.5 -59h170z" />
    <glyph glyph-name="H" unicode="H" horiz-adv-x="727" 
d="M74 0v719h151v-291h277v291h150v-719h-150v301h-277v-301h-151z" />
    <glyph glyph-name="I" unicode="I" horiz-adv-x="309" 
d="M74 719h158v-719h-158v719z" />
    <glyph glyph-name="J" unicode="J" horiz-adv-x="559" 
d="M193 0h-197v119h178q72 0 108 24q36 22 46 67t10 114v395h156v-428q0 -68 -9.5 -108.5t-21 -63t-36.5 -50.5t-53.5 -39.5t-47.5 -17t-38 -8t-53.5 -3.5t-41.5 -1z" />
    <glyph glyph-name="K" unicode="K" horiz-adv-x="672" 
d="M225 0h-151v719h151v-346l283 346h181l-289 -352l291 -367h-193l-273 357v-357z" />
    <glyph glyph-name="L" unicode="L" horiz-adv-x="557" 
d="M551 119v-119h-192h-13h-11q-42 0 -74.5 4t-70.5 21t-67 47t-42.5 64.5t-18.5 73.5t-5 81v428h150v-395v-44.5t3.5 -50.5t20.5 -58q15 -26 50 -39t90 -13h180z" />
    <glyph glyph-name="M" unicode="M" horiz-adv-x="957" 
d="M229 0h-155v719h223l182 -551l183 551h221v-719h-149l12 559l-183 -559h-161l-189 564z" />
    <glyph glyph-name="N" unicode="N" horiz-adv-x="777" 
d="M229 0h-155v719h192l293 -518l-6 518h152v-719h-174l-308 543z" />
    <glyph glyph-name="O" unicode="O" horiz-adv-x="773" 
d="M203 467q-12 -48 -12 -106q0 -57 19.5 -134.5t77.5 -98t98 -20.5q39 0 75 11q86 31 107 131q14 51 14 108q0 58 -9.5 94.5t-13 46.5t-15 30.5t-32.5 39.5t-44.5 26.5t-42.5 10.5t-39 3q-37 0 -73 -11q-78 -28 -110 -131zM49 518q23 79 62 117t72 55.5t69.5 27t65.5 12.5
t67 3q72 0 113.5 -10.5t57 -15.5t44 -20.5t50.5 -39.5q51 -49 74 -127.5t23 -160.5q0 -81 -23 -161.5t-75.5 -129.5t-123.5 -66t-138 -17t-129 15q-21 4 -38.5 10.5t-43.5 20.5t-52.5 38.5t-45 57.5t-35 91t-16.5 143q0 83 22 157z" />
    <glyph glyph-name="P" unicode="P" horiz-adv-x="742" 
d="M400 590h-175v-211h183q137 0 137 105q0 63 -38.5 84.5t-106.5 21.5zM225 0h-151v719h328q75 0 124 -6.5t87 -30.5q50 -28 75 -82t25 -116q0 -55 -19.5 -104t-56 -76.5t-65 -35t-45.5 -11t-34 -3.5l-85 -2h-183v-252z" />
    <glyph glyph-name="Q" unicode="Q" horiz-adv-x="773" 
d="M527 164q27 31 37 68.5t13.5 63.5t3.5 61q0 60 -14.5 115t-38.5 82.5t-63 41.5t-79 14t-79 -14t-63 -42t-38 -79t-14 -118q0 -64 13.5 -113.5t38.5 -78.5t63 -42q36 -16 79 -16q41 0 78.5 14.5t62.5 42.5zM791 0h-182l-23 25l-66 -24l-61 -12q-28 -4 -64 -4l-34 1
q-93 0 -160 30.5t-97.5 74.5t-42 74.5t-16 49.5t-10.5 49q-8 53 -8 98q0 54 8.5 100.5t28.5 94.5t49 79q27 33 90.5 64.5t179.5 31.5q51 0 102 -8t96.5 -29.5t79 -59t59.5 -105t26 -171.5q0 -39 -5.5 -81t-15.5 -79q-15 -48 -43 -92z" />
    <glyph glyph-name="R" unicode="R" horiz-adv-x="750" 
d="M225 0h-151v719h371q28 0 57.5 -3t66 -11.5t68.5 -40t47 -72.5q13 -44 13 -90q0 -51 -15 -92q-17 -42 -48 -69.5t-81 -39.5l177 -301h-169l-159 281h-177v-281zM410 590h-185v-182h185q41 0 68.5 5t48.5 26q18 21 18 61q0 58 -35.5 74t-99.5 16z" />
    <glyph glyph-name="S" unicode="S" horiz-adv-x="756" 
d="M285 719h397v-129h-373q-118 0 -118 -94q0 -40 27 -58q26 -20 69 -20h199q58 0 103 -8q41 -9 84.5 -48.5t43.5 -146.5q0 -29 -4.5 -53.5t-18 -57.5t-46 -58t-77.5 -35q-41 -11 -106 -11h-402v129h378q56 0 86.5 16.5t30.5 62.5l-1 15q-3 31 -16 45q-17 15 -38.5 20
t-51.5 5h-178q-115 0 -177.5 48t-62.5 161q0 57 19 102t52 69.5t76 34.5q39 11 105 11z" />
    <glyph glyph-name="T" unicode="T" horiz-adv-x="619" 
d="M387 0h-157v592h-230v125h619v-125h-232v-592z" />
    <glyph glyph-name="U" unicode="U" horiz-adv-x="768" 
d="M72 283v436h151v-432q0 -20 2 -40.5t7.5 -47t23 -48t49.5 -33t80 -11.5q64 0 98.5 20t48 57.5t13.5 102.5v432h150v-436q0 -28 -2 -56t-5 -55q-8 -45 -57.5 -112.5t-245.5 -67.5q-199 0 -245.5 62.5t-53 86t-9.5 37.5t-3 32q-1 14 -1.5 26.5t-0.5 24.5v22z" />
    <glyph glyph-name="V" unicode="V" horiz-adv-x="701" 
d="M736 719l-298 -719h-157l-312 719h170l216 -535l221 535h160z" />
    <glyph glyph-name="W" unicode="W" horiz-adv-x="1105" 
d="M416 0h-184l-238 719h160l166 -553l141 553h178l162 -553l154 553h154l-220 -719h-186l-152 535z" />
    <glyph glyph-name="X" unicode="X" horiz-adv-x="646" 
d="M164 0h-178l250 359l-242 360h176l148 -229l147 229h174l-231 -350l248 -369h-181l-151 250z" />
    <glyph glyph-name="Y" unicode="Y" horiz-adv-x="619" 
d="M232 0v316l-271 403h168l178 -276l179 276h174l-275 -403v-316h-153z" />
    <glyph glyph-name="Z" unicode="Z" horiz-adv-x="734" 
d="M57 719h605v-129l-402 -463h402v-127h-605v127l410 463h-410v129z" />
    <glyph glyph-name="bracketleft" unicode="[" horiz-adv-x="348" 
d="M322 -127h-246v846h246v-114h-125v-621h125v-111z" />
    <glyph glyph-name="backslash" unicode="\" horiz-adv-x="420" 
d="M424 -92h-74l-354 819h74z" />
    <glyph glyph-name="bracketright" unicode="]" horiz-adv-x="348" 
d="M25 605v114h245v-846h-245v111h125v621h-125z" />
    <glyph glyph-name="asciicircum" unicode="^" horiz-adv-x="1000" 
d="M318 439h-115l235 274h123l236 -274h-115l-182 180z" />
    <glyph glyph-name="underscore" unicode="_" 
d="M500 -234h-500v99h500v-99z" />
    <glyph glyph-name="grave" unicode="`" 
d="M232 729l96 -139h-68l-172 139h144z" />
    <glyph glyph-name="a" unicode="a" horiz-adv-x="635" 
d="M303 418h-233v109h285q51 0 93.5 -10t83 -52.5t40.5 -134.5v-330h-373q-78 0 -120 42q-44 40 -44 114v14q5 45 21 74.5t45 46t62.5 23t82.5 6.5h184q0 42 -15.5 63.5t-42 28t-69.5 6.5zM256 105h174v110h-164q-35 0 -59.5 -10.5t-24.5 -44.5q0 -23 10.5 -35.5t25 -16
t38.5 -3.5z" />
    <glyph glyph-name="b" unicode="b" horiz-adv-x="611" 
d="M285 412h-86v-299l43 -1l42 -1q68 0 108 23t46 93l1 35q0 59 -17 89.5t-38 42.5t-41.5 15t-57.5 3zM61 0v719h138v-192h121q68 0 118.5 -16.5t85 -59t48.5 -86.5t14 -96v-19q0 -27 -5.5 -52t-20.5 -62t-47 -69t-78.5 -49.5t-106.5 -17.5h-267z" />
    <glyph glyph-name="c" unicode="c" horiz-adv-x="527" 
d="M330 113h18h146v-113h-187q-59 0 -109.5 13.5t-89.5 50t-59 90.5t-20 108q0 38 8 72.5t27 69.5t43 61q35 34 71.5 44t68.5 14t60 4h187v-115h-146l-14 1h-18q-51 0 -95.5 -26.5t-44.5 -124.5q0 -96 46 -122.5t108 -26.5z" />
    <glyph glyph-name="d" unicode="d" horiz-adv-x="609" 
d="M408 719h141v-719h-268q-76 0 -112.5 19t-47 26.5t-28.5 25t-34.5 46.5t-26 63t-9.5 70v11q0 112 47.5 172t98 77t120.5 17h119v192zM364 113h44v299l-32 1h-39l-69 -3q-24 0 -57 -27q-25 -25 -33 -58.5t-8 -76.5q0 -42 10.5 -69.5t41 -47t106.5 -19.5l18 1h18z" />
    <glyph glyph-name="e" unicode="e" horiz-adv-x="527" 
d="M498 109v-109h-203q-135 0 -200.5 72t-65.5 192t51 176.5t102.5 71.5t112.5 15h203v-109h-184q-45 0 -71 -7t-41 -29q-18 -23 -18 -64h314v-111h-314q0 -41 14.5 -62.5t41.5 -29.5q26 -6 73 -6h185z" />
    <glyph glyph-name="f" unicode="f" horiz-adv-x="393" 
d="M252 0h-145v422h-99v105h99v30v35t3.5 41t17.5 46t44 29q30 11 80 11h133v-104l-22 2l-36 1q-42 0 -57 -13q-19 -10 -19 -46l1 -7v-8v-17h133v-105h-133v-422z" />
    <glyph glyph-name="g" unicode="g" horiz-adv-x="609" 
d="M301 527h254v-507q0 -68 -20.5 -114.5t-64.5 -71.5q-46 -23 -115 -23h-273v107h248q84 0 84 82h-113h-13q-42 0 -68.5 3t-57.5 16t-64.5 45t-53 84t-19.5 114q0 128 52 178t84 64t64 18t49 4.5t27 0.5zM325 109h17h72v305l-16 1h-17h-40q-48 0 -84 -9t-53 -29.5
t-24.5 -41t-7.5 -46.5l-1 -31q0 -89 54 -127q18 -14 41.5 -18t58.5 -4z" />
    <glyph glyph-name="h" unicode="h" horiz-adv-x="602" 
d="M197 0h-136v719h136v-192h125q50 0 92.5 -10.5t70 -32.5t43 -59t15.5 -91v-334h-141v318q0 50 -20 72q-22 20 -73 20h-112v-410z" />
    <glyph glyph-name="i" unicode="i" horiz-adv-x="266" 
d="M61 527h144v-527h-144v527zM61 719h144v-131h-144v131z" />
    <glyph glyph-name="j" unicode="j" horiz-adv-x="266" 
d="M61 719h144v-131h-144v131zM-68 -189v111h60q44 0 56.5 29t12.5 80v496h144v-502q0 -56 -10 -97.5t-40 -70t-67.5 -38t-85.5 -9.5l-15 1h-17h-38z" />
    <glyph glyph-name="k" unicode="k" horiz-adv-x="602" 
d="M203 0h-139v719h139v-446l225 254h176l-245 -257l245 -270h-188l-213 256v-256z" />
    <glyph glyph-name="l" unicode="l" horiz-adv-x="262" 
d="M59 719h144v-719h-144v719z" />
    <glyph glyph-name="m" unicode="m" horiz-adv-x="877" 
d="M199 0h-138v527h533q51 0 94 -10q40 -11 67.5 -32.5t42.5 -58t15 -92.5v-334h-139v316q0 40 -9.5 61t-30.5 28t-49 7l-34 -1h-25l-20 -1v-410h-143v410h-164v-410z" />
    <glyph glyph-name="n" unicode="n" horiz-adv-x="600" 
d="M199 0h-138v527h261q73 0 121 -17t74 -59.5t26 -116.5v-334h-141v316q0 16 -1.5 30.5t-6.5 31t-24 24.5t-59 8h-112v-410z" />
    <glyph glyph-name="o" unicode="o" horiz-adv-x="609" 
d="M506 63q-38 -35 -78 -49.5t-67 -19.5t-56 -5q-55 0 -110 19.5t-91.5 54.5t-52.5 76.5t-21 68t-5 56.5q0 57 15.5 96.5t29 60.5t42 49.5t81 48t112.5 19.5q57 0 109.5 -18.5t82 -47t43.5 -50t29 -60t15 -98.5q0 -57 -19.5 -109.5t-58.5 -91.5zM258 111q8 -4 20.5 -6
t24.5 -2q43 0 78 25t46.5 61t11.5 73q0 53 -19.5 92.5t-62.5 57.5q-28 10 -51 10q-26 0 -54 -11q-27 -13 -45 -33t-27.5 -49t-9.5 -67q0 -51 21.5 -92t66.5 -59z" />
    <glyph glyph-name="p" unicode="p" horiz-adv-x="611" 
d="M199 -189h-138v716h267q56 0 104.5 -17t81 -49.5t50.5 -79.5q11 -25 16.5 -50t5.5 -54v-19q0 -101 -57 -178q-26 -32 -58 -49t-69 -24t-82 -7h-121v-189zM199 412v-299h52q68 0 105.5 9t60 42t22.5 103v10q0 82 -38.5 109.5t-113.5 27.5l-39 -1h-27z" />
    <glyph glyph-name="q" unicode="q" horiz-adv-x="609" 
d="M549 527v-716h-139v189h-119q-46 0 -82 6q-37 8 -69.5 25t-59.5 49q-56 74 -56 176l1 21q0 37 9 70t25 62t37 50.5t64 44.5t121 23h268zM324 113h86v299l-43 1l-43 1q-69 0 -107.5 -23t-44.5 -90l-2 -35q0 -60 18.5 -91.5t38.5 -43.5t43 -15z" />
    <glyph glyph-name="r" unicode="r" horiz-adv-x="471" 
d="M199 0h-138v527h234q64 0 96 -18t41 -49t9 -86v-35v-32h-132v42q0 41 -5 54.5t-19 18.5q-13 2 -23 3t-33 1h-30v-426z" />
    <glyph glyph-name="s" unicode="s" horiz-adv-x="594" 
d="M410 0h-357v109h293q74 0 74 53q0 51 -74 51h-121q-26 0 -41 1t-43 5.5t-51 20t-35 46t-12 73.5q0 168 186 168h298v-109h-246h-10h-13q-63 0 -70 -35l-2 -17q0 -44 66 -44h127q38 0 69.5 -8.5t55.5 -27t37.5 -47t13.5 -65.5q0 -45 -13 -76t-25 -46.5t-37 -33.5t-70 -18z
" />
    <glyph glyph-name="t" unicode="t" horiz-adv-x="414" 
d="M105 422h-97v105h97v192h139v-192h149v-105h-149v-213q0 -47 15.5 -70t42.5 -29q32 -5 77 -5h14v-105h-127q-79 0 -120 44t-41 120v258z" />
    <glyph glyph-name="u" unicode="u" horiz-adv-x="602" 
d="M398 527h139v-527h-262q-71 0 -119 18.5t-73.5 61t-25.5 113.5v334h138v-324q0 -32 8 -52t28 -28t54 -8h113v412z" />
    <glyph glyph-name="v" unicode="v" horiz-adv-x="609" 
d="M373 0h-148l-223 527h154l147 -375l154 375h150z" />
    <glyph glyph-name="w" unicode="w" horiz-adv-x="873" 
d="M707 0h-158l-115 359l-112 -359h-152l-184 527h145l115 -369l115 369h149l117 -369l115 369h145z" />
    <glyph glyph-name="x" unicode="x" horiz-adv-x="553" 
d="M164 0h-160l193 264l-195 263h160l113 -160l118 160h160l-196 -267l192 -260h-162l-112 152z" />
    <glyph glyph-name="y" unicode="y" horiz-adv-x="602" 
d="M285 115h113v412h139v-513q0 -67 -21 -112t-66 -68t-110 -23h-274v107h248q42 0 63 20t21 62h-123q-74 0 -121.5 19.5t-72 63t-24.5 118.5v326h136v-314q0 -25 1.5 -36t8 -27.5t26 -25.5t56.5 -9z" />
    <glyph glyph-name="z" unicode="z" horiz-adv-x="584" 
d="M539 0h-494v113l312 299h-312v115h494v-115l-312 -299h312v-113z" />
    <glyph glyph-name="braceleft" unicode="{" 
d="M432 721v-102q-45 0 -67 -6t-31.5 -28t-9.5 -64v-117q0 -50 -8 -75t-29 -41.5t-64 -27.5q42 -12 64 -29.5t29 -44.5q8 -24 8 -73v-117q0 -41 9.5 -62.5t31 -27.5t67.5 -6v-101h-28l-24 -1q-80 0 -118.5 21.5t-47.5 56.5t-9 89v121q0 71 -25 96t-93 25h-11v104h11
q67 0 92.5 25.5t25.5 97.5v121q0 54 9 88.5t44 53.5q22 14 53 19.5t71 5.5h28z" />
    <glyph glyph-name="bar" unicode="|" 
d="M301 -234h-102v998h102v-998z" />
    <glyph glyph-name="braceright" unicode="}" 
d="M70 619v102l22 1h27q43 0 72.5 -6t57.5 -21.5t37 -48t9 -80.5v-11v-123q0 -48 11 -74t36.5 -36.5t71.5 -10.5h10v-104h-10q-68 0 -93.5 -25.5t-25.5 -95.5v-121v-11q0 -49 -9.5 -81.5t-36 -48t-58 -20.5t-46.5 -5.5t-24 -0.5l-23 1h-28v101q46 0 67 5.5t30 25.5
q11 19 11 65v117q0 66 19 98.5t80 48.5q-40 9 -62.5 27.5t-29.5 46t-7 70.5v119q0 22 -3 37.5t-10 31t-28.5 21.5t-66.5 6z" />
    <glyph glyph-name="asciitilde" unicode="~" horiz-adv-x="1000" 
d="M701 688h100q0 -49 -9.5 -90.5t-35.5 -74t-70 -48.5q-33 -10 -61 -10q-76 0 -141 56q-27 26 -38.5 37t-26 21.5t-41.5 10.5q-15 0 -35.5 -8.5t-31 -28t-13.5 -37.5l-3 -51h-98q0 81 25.5 136t71 71t77.5 16q73 0 139 -57l14 -13l21 -19q17 -16 37 -26.5t41 -10.5
q19 0 41 10.5t29.5 41.5t7.5 74z" />
    <glyph glyph-name="nonbreakingspace" unicode="&#xa0;" 
 />
    <glyph glyph-name="exclamdown" unicode="&#xa1;" horiz-adv-x="313" 
d="M230 0h-150v533h150v-533zM232 590h-152v129h152v-129z" />
    <glyph glyph-name="cent" unicode="&#xa2;" horiz-adv-x="410" 
d="M393 240v-92h-106v-62h-57v62l-48 5l-40 10q-37 11 -66 36q-30 30 -42 66t-16 56t-4 44q0 102 45.5 148t84.5 56q41 13 86 13v63h57v-63h106v-92h-106v-250h106zM230 240v250q-51 -7 -74 -38.5t-23 -86.5q0 -53 22.5 -84.5t74.5 -40.5z" />
    <glyph glyph-name="sterling" unicode="&#xa3;" horiz-adv-x="682" 
d="M27 0v123h129v188h-129v103h129v35l-1 30q0 61 10 101q4 21 13 40t34 48.5t71 39.5q41 11 116 11h13h184v-125h-172q-49 0 -75.5 -11t-35 -32.5t-8.5 -54.5l1 -38l1 -44h175v-103h-175v-188h349v-123h-629z" />
    <glyph glyph-name="currency" unicode="&#xa4;" horiz-adv-x="605" 
d="M133 551l-100 99l51 51l100 -97q56 36 120 36t120 -36l99 97l51 -51l-99 -99q36 -54 36 -119q0 -64 -36 -118l99 -99l-51 -53l-99 100q-55 -37 -120 -37t-120 37l-100 -100l-51 53l100 99q-10 14 -16.5 27.5t-14 39.5t-7.5 52q0 63 38 118zM305 566q-35 0 -65.5 -17
t-51.5 -50q-18 -32 -18 -67q0 -36 18.5 -66.5t50 -48.5t66.5 -18q34 0 65.5 18t50 48.5t18.5 66.5q0 35 -18 66t-50 49.5t-66 18.5z" />
    <glyph glyph-name="yen" unicode="&#xa5;" horiz-adv-x="619" 
d="M232 0v291h-224v59h205l-43 64h-162v59h121l-168 246h168l178 -276l179 276h174l-168 -246h123v-59h-162l-47 -64h209v-59h-230v-291h-153z" />
    <glyph glyph-name="brokenbar" unicode="&#xa6;" 
d="M301 328h-102v371h102v-371zM301 -170h-102v369h102v-369z" />
    <glyph glyph-name="section" unicode="&#xa7;" 
d="M287 -94h-238v117h189h13q35 0 55.5 7.5t29.5 32.5l3 20q0 25 -20 40.5t-46 15.5h-16h-28h-23q-61 0 -104.5 14.5t-66 54.5t-22.5 80q0 31 14 62.5t53 49.5q-34 24 -49 59t-15 84q0 43 14.5 76t53 66.5t129.5 33.5h230v-119h-177h-17q-23 0 -32.5 -1t-22.5 -7
q-22 -7 -30 -35l-3 -18q0 -23 13 -33.5t24 -16t29 -5.5h19h36q70 0 116.5 -15t66 -56.5t19.5 -73.5q0 -70 -60 -114q23 -15 37 -37.5t18 -46t4.5 -35.5t0.5 -24q0 -43 -16.5 -78t-45.5 -59.5t-60 -30.5q-13 -4 -32.5 -6t-42.5 -2zM227 256h74q51 30 51 70q-6 44 -85 44h-19
h-7l-8 -1h-8l-8 -1l-14 -1q-24 -9 -37 -28q-15 -18 -15 -36q0 -19 19.5 -33t56.5 -14z" />
    <glyph glyph-name="dieresis" unicode="&#xa8;" 
d="M223 596h-119v127h119v-127zM396 596h-119v127h119v-127z" />
    <glyph glyph-name="copyright" unicode="&#xa9;" horiz-adv-x="832" 
d="M416 723q74 0 140 -28.5t103 -65t57 -67.5t41.5 -79.5t21.5 -125.5q0 -36 -7 -71t-29 -85.5t-72.5 -100.5t-99.5 -69.5t-84 -27.5q-20 -3 -36.5 -5t-34.5 -2q-93 0 -155 36t-96.5 70t-72 98t-37.5 157q0 14 1.5 29t5.5 42q7 35 18 61.5t18 39.5t23 37.5t42 50t53 44.5
t76 40.5t124 21.5zM418 662q-61 0 -117 -24t-97.5 -65t-66 -97.5t-24.5 -116.5q0 -81 42 -151t111 -110.5t152 -40.5q81 0 125.5 26t59 36.5t36 32t42 55.5t30.5 71.5t10 80.5q0 60 -23.5 115.5t-66 98t-96.5 66t-117 23.5zM592 438h-92q-3 34 -27 54t-52 20
q-27 0 -43.5 -12t-26 -24.5t-20.5 -40t-11 -76.5q0 -57 22.5 -101.5t71.5 -44.5q78 0 90 78h94q-6 -61 -46.5 -101.5t-102.5 -46.5l-32 -2q-60 0 -104.5 28.5t-68 78.5t-23.5 115q0 33 8 63.5t22.5 54.5t33 42.5t54 36t83.5 17.5q45 0 82.5 -17t60 -47.5t27.5 -74.5z" />
    <glyph glyph-name="ordfeminine" unicode="&#xaa;" horiz-adv-x="477" 
d="M227 643h-174v76h215q27 0 39.5 -1t35.5 -7.5t48 -28.5q39 -39 39 -102v-230h-282q-58 0 -89.5 31.5t-31.5 87.5q0 21 6 36.5t18 29.5q24 24 48 29.5t41.5 7.5t43.5 2h138q0 42 -23 55.5t-72 13.5zM191 424h131v76h-123q-30 0 -46 -8t-16 -31q0 -16 8 -24q5 -8 18 -11z
" />
    <glyph glyph-name="guillemotleft" unicode="&#xab;" horiz-adv-x="631" 
d="M197 438h149l-176 -174l172 -174h-153l-164 174zM436 438h148l-178 -174l172 -174h-150l-164 174z" />
    <glyph glyph-name="logicalnot" unicode="&#xac;" horiz-adv-x="832" 
d="M613 326h-490v96h586v-244h-96v148z" />
    <glyph glyph-name="registered" unicode="&#xae;" horiz-adv-x="832" 
d="M416 723q75 0 141 -29q16 -6 29.5 -13t37.5 -23.5t60.5 -53t65.5 -104t29 -143.5q0 -36 -7 -71t-29 -85.5t-72.5 -100.5t-99.5 -69.5t-84 -27.5q-20 -3 -36.5 -5t-34.5 -2q-70 0 -137.5 29t-116.5 79t-78 114.5t-29 138.5q0 76 29 143.5t64.5 104t57 51t38 23.5
t56.5 26.5t116 17.5zM418 662q-64 0 -119 -24t-96 -65t-65.5 -97t-24.5 -117q0 -80 40 -148t92.5 -100.5t88.5 -43t76 -10.5q61 0 119 23t100 64.5t60.5 82.5t25 69t6.5 58q0 83 -41 154t-111 112.5t-151 41.5zM363 164h-97v402h158q42 0 74 -6.5t59.5 -25.5t36.5 -55l3 -25
q0 -28 -11 -50t-26.5 -33.5t-25.5 -16.5t-26 -10l90 -180h-110l-76 164h-49v-164zM363 506v-117h19h18q42 0 68 12t26 48q0 34 -27.5 45.5t-66.5 11.5h-21h-16z" />
    <glyph glyph-name="macron" unicode="&#xaf;" 
d="M500 664h-500v100h500v-100z" />
    <glyph glyph-name="macron" unicode="&#x2c9;" 
d="M500 664h-500v100h500v-100z" />
    <glyph glyph-name="degree" unicode="&#xb0;" horiz-adv-x="400" 
d="M62 593q0 55 39.5 95t96.5 40q56 0 95.5 -39.5t39.5 -95.5t-39.5 -96t-95.5 -40q-55 0 -96 39q-40 42 -40 97zM116 593q0 -33 24 -58t58 -25t58 24t24 59q0 32 -24 57t-58 25t-58 -24t-24 -58z" />
    <glyph glyph-name="plusminus" unicode="&#xb1;" horiz-adv-x="832" 
d="M123 438h244v160h100v-160h242v-96h-242v-160h-100v160h-244v96zM709 0h-586v96h586v-96z" />
    <glyph glyph-name="twosuperior" unicode="&#xb2;" horiz-adv-x="449" 
d="M430 285h-412v129q0 38 11 66q13 27 39 39t52.5 17t65.5 5h30h26h26q24 0 40 13q13 13 13 33l-1 13q-3 27 -21.5 34t-54.5 7h-226v74h248h20l48 -3q22 -3 39 -13q59 -27 59 -101q0 -66 -35.5 -100.5t-105.5 -34.5h-90q-48 0 -62 -18.5t-14 -57.5v-28h305v-74z" />
    <glyph glyph-name="threesuperior" unicode="&#xb3;" horiz-adv-x="418" 
d="M244 285h-236v74h195q34 0 55 11t21 42q0 51 -76 51h-156v74h152q35 0 56.5 11t21.5 40q0 31 -21.5 42t-56.5 11h-191v74h226q14 0 29.5 -1.5t34 -4.5t31.5 -8.5t28.5 -16.5t24.5 -38t9 -46q0 -31 -17 -54.5t-48 -45.5q23 -11 39 -26.5t20.5 -31.5t5.5 -22t1 -19
q0 -16 -8.5 -47t-47.5 -49q-38 -20 -92 -20z" />
    <glyph glyph-name="acute" unicode="&#xb4;" 
d="M240 590h-68l96 139h144z" />
    <glyph glyph-name="mu" unicode="&#xb5;" horiz-adv-x="609" 
d="M109 -213h-138l129 746h140l-37 -213q-15 -78 -15 -130l1 -18q9 -66 77 -72q45 0 70.5 28t37.5 69t19 84l45 252h140l-94 -533h-130l7 57q-19 -34 -43.5 -53t-59.5 -19l-5 1h-5q-28 0 -45 11.5t-28.5 22t-22.5 23.5z" />
    <glyph glyph-name="paragraph" unicode="&#xb6;" 
d="M211 723h269v-55h-54v-668h-74v668h-79v-668h-74v383q-27 3 -34.5 4.5t-32 7.5t-48 24.5t-36 38t-20.5 43.5t-8 52q0 41 15.5 72.5t42 54t62 33t71.5 10.5z" />
    <glyph glyph-name="periodcentered" unicode="&#xb7;" horiz-adv-x="590" 
d="M160 426q17 41 54.5 65t81.5 24q29 0 60.5 -12t56.5 -50t25 -83q0 -15 -2 -27.5t-13 -39t-49 -51.5t-80 -25q-31 0 -63 14t-56 51.5t-24 81.5q0 28 9 52z" />
    <glyph glyph-name="periodcentered" unicode="&#x2219;" horiz-adv-x="590" 
d="M160 426q17 41 54.5 65t81.5 24q29 0 60.5 -12t56.5 -50t25 -83q0 -15 -2 -27.5t-13 -39t-49 -51.5t-80 -25q-31 0 -63 14t-56 51.5t-24 81.5q0 28 9 52z" />
    <glyph glyph-name="cedilla" unicode="&#xb8;" 
d="M139 -197v60l38 -9l40 -8l38 -3q37 0 46 16l5 16q0 27 -64 27h-19v104h54v-45q35 0 63.5 -9t40 -30.5t11.5 -46.5q0 -36 -26.5 -65.5t-92.5 -29.5q-45 0 -134 23z" />
    <glyph glyph-name="onesuperior" unicode="&#xb9;" horiz-adv-x="174" 
d="M139 285h-104v430h104v-430z" />
    <glyph glyph-name="ordmasculine" unicode="&#xba;" horiz-adv-x="457" 
d="M379 395q-28 -26 -65.5 -39.5t-84.5 -13.5q-45 0 -84.5 13.5t-63 36t-34 40.5t-14.5 27t-7.5 22t-4.5 24t-1 29q0 44 15 77q13 35 42 61.5t68.5 39.5t83.5 13t83.5 -13.5t68 -39.5t43 -59.5t14.5 -77.5q0 -46 -15 -77q-15 -37 -44 -63zM193 428q18 -6 35 -6q31 0 57 17.5
t33.5 38t9.5 31.5t2 25q0 37 -15.5 65t-38.5 37.5t-45 9.5q-32 0 -58.5 -17t-34 -39t-9.5 -32t-2 -25q0 -35 17 -64t49 -41z" />
    <glyph glyph-name="guillemotright" unicode="&#xbb;" horiz-adv-x="631" 
d="M412 90h-148l177 174l-171 174h152l162 -174zM174 90h-149l178 174l-172 174h151l164 -174z" />
    <glyph glyph-name="onequarter" unicode="&#xbc;" horiz-adv-x="820" 
d="M133 314h-100v401h100v-401zM426 717l-278 -717h-76l280 717h74zM736 0h-93v72h-291v78l265 252h119v-259h63v-71h-63v-72zM459 143h184v173z" />
    <glyph glyph-name="onehalf" unicode="&#xbd;" horiz-adv-x="762" 
d="M133 314h-100v401h100v-401zM426 717l-278 -717h-76l280 717h74zM744 0h-394v121q0 36 11.5 60.5t42.5 39.5q17 10 40 13.5t56 3.5h30l20 -1h15l25 1q22 0 36 13t14 32l-1 10q0 9 -2.5 14t-10 12t-23.5 11l-37 2h-216v68h236h16h18q46 0 69 -13q57 -24 57 -94
q0 -64 -34.5 -95.5t-100.5 -31.5h-86q-48 0 -61 -17t-13 -52v-29h293v-68z" />
    <glyph glyph-name="threequarters" unicode="&#xbe;" horiz-adv-x="1053" 
d="M234 314h-226v69h185q75 0 75 49q0 50 -75 50h-148v69h146q75 0 75 47q0 29 -19.5 38.5t-55.5 9.5h-183v69h217q56 0 93.5 -15t47 -45t9.5 -47q0 -51 -62 -92q45 -24 56 -59q4 -8 5 -15.5t1 -21.5q0 -18 -8 -44t-44.5 -44t-88.5 -18zM658 717l-277 -717h-76l279 717h74z
M969 0h-94v72h-291v78l266 252h119v-259h62v-71h-62v-72zM691 143h184v173z" />
    <glyph glyph-name="questiondown" unicode="&#xbf;" horiz-adv-x="693" 
d="M488 719h164v-127h-164v127zM488 523v18h164q0 -18 -1.5 -39.5t-2.5 -46.5q-3 -31 -16 -57.5t-24.5 -41t-48.5 -40t-146 -25.5l-51 1l-50 1h-15q-98 0 -98 -82v-4v-6q3 -33 17.5 -50t41.5 -22.5t58 -5.5h352v-123h-385h-22h-11q-40 0 -70.5 4.5t-60.5 18.5
q-31 19 -50 45.5t-26 50.5t-10.5 39t-3.5 37v9l-1 6q0 67 25 115t74.5 72.5t118.5 24.5h125q59 0 88 22t29 79z" />
    <glyph glyph-name="Agrave" unicode="&#xc0;" horiz-adv-x="723" 
d="M137 0h-160l302 719h160l307 -719h-168l-66 172h-313zM248 299h215l-109 275zM342 924l96 -139h-69l-172 139h145z" />
    <glyph glyph-name="Aacute" unicode="&#xc1;" horiz-adv-x="723" 
d="M137 0h-160l302 719h160l307 -719h-168l-66 172h-313zM248 299h215l-109 275zM350 785h-69l96 139h144z" />
    <glyph glyph-name="Acircumflex" unicode="&#xc2;" horiz-adv-x="723" 
d="M137 0h-160l302 719h160l307 -719h-168l-66 172h-313zM248 299h215l-109 275zM273 785h-68l96 139h117l96 -139h-69l-86 72z" />
    <glyph glyph-name="Atilde" unicode="&#xc3;" horiz-adv-x="723" 
d="M137 0h-160l302 719h160l307 -719h-168l-66 172h-313zM248 299h215l-109 275zM252 791h-49q15 62 41 87t61 25l28 -3l35 -7l32 -9l23 -3q34 0 44 37h49q-4 -20 -10.5 -37.5t-19 -38t-32.5 -29.5t-40 -9q-18 0 -34.5 4t-30.5 7.5t-29.5 6.5t-24.5 3q-32 0 -43 -34z" />
    <glyph glyph-name="Adieresis" unicode="&#xc4;" horiz-adv-x="723" 
d="M137 0h-160l302 719h160l307 -719h-168l-66 172h-313zM248 299h215l-109 275zM332 791h-119v127h119v-127zM506 791h-119v127h119v-127z" />
    <glyph glyph-name="Aring" unicode="&#xc5;" horiz-adv-x="723" 
d="M137 0h-160l302 719h160l307 -719h-168l-66 172h-313zM248 299h215l-109 275zM281 930q33 34 76 34q44 0 80 -35t36 -80q0 -44 -33.5 -77.5t-75.5 -33.5q-31 0 -57 17q-26 15 -42.5 42t-16.5 57q0 41 33 76zM330 881q-13 -12 -13 -28t14 -30.5t32 -14.5q16 0 28 12t12 28
q0 17 -13 32q-16 14 -32 14q-15 0 -28 -13z" />
    <glyph glyph-name="AE" unicode="&#xc6;" horiz-adv-x="1117" 
d="M479 299l-102 275h-22l-103 -275h227zM201 172l-62 -172h-160l302 719h164l65 -174q26 53 57 85q29 32 65 53q19 9 39 16t53.5 13.5t93.5 6.5h241v-125h-248q-170 0 -170 -168h418v-125h-418q0 -40 8 -74.5t33 -61.5t54 -33.5t75 -6.5h248v-125h-245q-67 0 -109 6.5
t-74.5 24t-60 52t-56.5 89.5h-313z" />
    <glyph glyph-name="Ccedilla" unicode="&#xc7;" horiz-adv-x="654" 
d="M617 719v-123h-248q-66 0 -105 -31.5t-50 -70t-16 -71t-5 -64.5v-13l-1 -11q0 -14 1 -30.5t4 -40t13.5 -50.5t29.5 -50q25 -26 54 -32.5t75 -6.5h248v-125h-254q-72 0 -122.5 12.5t-101.5 50.5q-61 52 -86.5 125t-25.5 158l2 43q0 39 8 76t20 70t28 58t47 56t75 45.5
t82.5 19.5t77.5 5h250zM236 -197v60l38 -9l41 -8l38 -3q38 0 45 16l5 16q0 27 -64 27h-19v104h55v-45q81 0 105 -43q10 -23 10 -43q0 -36 -26.5 -65.5t-92.5 -29.5q-45 0 -135 23z" />
    <glyph glyph-name="Egrave" unicode="&#xc8;" horiz-adv-x="676" 
d="M617 719v-125h-248q-81 0 -125.5 -42.5t-44.5 -125.5h418v-125h-418q0 -90 33 -126.5t61.5 -43t75.5 -6.5h248v-125h-254q-72 0 -122.5 12.5t-101.5 50.5q-61 52 -86.5 125t-25.5 158l2 43q0 39 8 76t20 70t28 58t47 56t75 45.5t82.5 19.5t77.5 5h250zM365 924l96 -139
h-68l-172 139h144z" />
    <glyph glyph-name="Eacute" unicode="&#xc9;" horiz-adv-x="676" 
d="M617 719v-125h-248q-81 0 -125.5 -42.5t-44.5 -125.5h418v-125h-418q0 -90 33 -126.5t61.5 -43t75.5 -6.5h248v-125h-254q-72 0 -122.5 12.5t-101.5 50.5q-61 52 -86.5 125t-25.5 158l2 43q0 39 8 76t20 70t28 58t47 56t75 45.5t82.5 19.5t77.5 5h250zM373 785h-68
l95 139h145z" />
    <glyph glyph-name="Ecircumflex" unicode="&#xca;" horiz-adv-x="676" 
d="M617 719v-125h-248q-81 0 -125.5 -42.5t-44.5 -125.5h418v-125h-418q0 -90 33 -126.5t61.5 -43t75.5 -6.5h248v-125h-254q-72 0 -122.5 12.5t-101.5 50.5q-61 52 -86.5 125t-25.5 158l2 43q0 39 8 76t20 70t28 58t47 56t75 45.5t82.5 19.5t77.5 5h250zM297 785h-68
l95 139h117l96 -139h-68l-86 72z" />
    <glyph glyph-name="Edieresis" unicode="&#xcb;" horiz-adv-x="676" 
d="M617 719v-125h-248q-81 0 -125.5 -42.5t-44.5 -125.5h418v-125h-418q0 -90 33 -126.5t61.5 -43t75.5 -6.5h248v-125h-254q-72 0 -122.5 12.5t-101.5 50.5q-61 52 -86.5 125t-25.5 158l2 43q0 39 8 76t20 70t28 58t47 56t75 45.5t82.5 19.5t77.5 5h250zM355 791h-119v127
h119v-127zM529 791h-119v127h119v-127z" />
    <glyph glyph-name="Igrave" unicode="&#xcc;" horiz-adv-x="309" 
d="M74 719h158v-719h-158v719zM137 924l95 -139h-68l-172 139h145z" />
    <glyph glyph-name="Iacute" unicode="&#xcd;" horiz-adv-x="309" 
d="M74 719h158v-719h-158v719zM145 785h-69l96 139h144z" />
    <glyph glyph-name="Icircumflex" unicode="&#xce;" horiz-adv-x="309" 
d="M74 719h158v-719h-158v719zM68 785h-68l96 139h117l96 -139h-69l-86 72z" />
    <glyph glyph-name="Idieresis" unicode="&#xcf;" horiz-adv-x="309" 
d="M74 719h158v-719h-158v719zM127 791h-119v127h119v-127zM301 791h-119v127h119v-127z" />
    <glyph glyph-name="Eth" unicode="&#xd0;" horiz-adv-x="779" 
d="M416 0h-334v326h-72v76h72v317h330q85 0 145 -19t100.5 -59.5t58.5 -90.5t25 -84.5t7 -76.5q1 -4 1 -22t1 -29q0 -57 -11 -105t-34 -91.5t-67 -80t-96.5 -49t-125.5 -12.5zM234 326v-201h178q29 0 42.5 1t38.5 6.5t50 31.5q30 35 38.5 85t8.5 110t-8.5 110.5t-35.5 80
t-49 35t-42 7.5t-43 2h-178v-192h168v-76h-168z" />
    <glyph glyph-name="Ntilde" unicode="&#xd1;" horiz-adv-x="777" 
d="M229 0h-155v719h192l293 -518l-6 518h152v-719h-174l-308 543zM281 791h-49q27 112 102 112l28 -2l34 -8l33 -9l23 -3q34 0 44 37h49q-4 -20 -10.5 -37.5t-19 -38t-26 -26.5t-23 -9t-24.5 -3t-46.5 7.5t-47 10.5t-24.5 3q-32 0 -43 -34z" />
    <glyph glyph-name="Ograve" unicode="&#xd2;" horiz-adv-x="773" 
d="M203 467q-12 -48 -12 -106q0 -57 19.5 -134.5t77.5 -98t98 -20.5q39 0 75 11q86 31 107 131q14 51 14 108q0 58 -9.5 94.5t-13 46.5t-15 30.5t-32.5 39.5t-44.5 26.5t-42.5 10.5t-39 3q-37 0 -73 -11q-78 -28 -110 -131zM49 518q23 79 62 117t72 55.5t69.5 27t65.5 12.5
t67 3q72 0 113.5 -10.5t57 -15.5t44 -20.5t50.5 -39.5q51 -49 74 -127.5t23 -160.5q0 -81 -23 -161.5t-75.5 -129.5t-123.5 -66t-138 -17t-129 15q-21 4 -38.5 10.5t-43.5 20.5t-52.5 38.5t-45 57.5t-35 91t-16.5 143q0 83 22 157zM367 924l96 -139h-68l-172 139h144z" />
    <glyph glyph-name="Oacute" unicode="&#xd3;" horiz-adv-x="773" 
d="M203 467q-12 -48 -12 -106q0 -57 19.5 -134.5t77.5 -98t98 -20.5q39 0 75 11q86 31 107 131q14 51 14 108q0 58 -9.5 94.5t-13 46.5t-15 30.5t-32.5 39.5t-44.5 26.5t-42.5 10.5t-39 3q-37 0 -73 -11q-78 -28 -110 -131zM49 518q23 79 62 117t72 55.5t69.5 27t65.5 12.5
t67 3q72 0 113.5 -10.5t57 -15.5t44 -20.5t50.5 -39.5q51 -49 74 -127.5t23 -160.5q0 -81 -23 -161.5t-75.5 -129.5t-123.5 -66t-138 -17t-129 15q-21 4 -38.5 10.5t-43.5 20.5t-52.5 38.5t-45 57.5t-35 91t-16.5 143q0 83 22 157zM375 785h-68l95 139h145z" />
    <glyph glyph-name="Ocircumflex" unicode="&#xd4;" horiz-adv-x="773" 
d="M203 467q-12 -48 -12 -106q0 -57 19.5 -134.5t77.5 -98t98 -20.5q39 0 75 11q86 31 107 131q14 51 14 108q0 58 -9.5 94.5t-13 46.5t-15 30.5t-32.5 39.5t-44.5 26.5t-42.5 10.5t-39 3q-37 0 -73 -11q-78 -28 -110 -131zM49 518q23 79 62 117t72 55.5t69.5 27t65.5 12.5
t67 3q72 0 113.5 -10.5t57 -15.5t44 -20.5t50.5 -39.5q51 -49 74 -127.5t23 -160.5q0 -81 -23 -161.5t-75.5 -129.5t-123.5 -66t-138 -17t-129 15q-21 4 -38.5 10.5t-43.5 20.5t-52.5 38.5t-45 57.5t-35 91t-16.5 143q0 83 22 157zM299 785h-69l96 139h117l96 -139h-68
l-86 72z" />
    <glyph glyph-name="Otilde" unicode="&#xd5;" horiz-adv-x="773" 
d="M203 467q-12 -48 -12 -106q0 -57 19.5 -134.5t77.5 -98t98 -20.5q39 0 75 11q86 31 107 131q14 51 14 108q0 58 -9.5 94.5t-13 46.5t-15 30.5t-32.5 39.5t-44.5 26.5t-42.5 10.5t-39 3q-37 0 -73 -11q-78 -28 -110 -131zM49 518q23 79 62 117t72 55.5t69.5 27t65.5 12.5
t67 3q72 0 113.5 -10.5t57 -15.5t44 -20.5t50.5 -39.5q51 -49 74 -127.5t23 -160.5q0 -81 -23 -161.5t-75.5 -129.5t-123.5 -66t-138 -17t-129 15q-21 4 -38.5 10.5t-43.5 20.5t-52.5 38.5t-45 57.5t-35 91t-16.5 143q0 83 22 157zM277 791h-48q27 112 101 112l28 -2l34 -8
l33 -9l23 -3q34 0 44 37h49q-4 -20 -10.5 -37.5t-18 -36.5t-31.5 -29.5t-42 -10.5q-11 0 -18 1t-43 9q-41 11 -57 11q-33 0 -44 -34z" />
    <glyph glyph-name="Odieresis" unicode="&#xd6;" horiz-adv-x="773" 
d="M203 467q-12 -48 -12 -106q0 -57 19.5 -134.5t77.5 -98t98 -20.5q39 0 75 11q86 31 107 131q14 51 14 108q0 58 -9.5 94.5t-13 46.5t-15 30.5t-32.5 39.5t-44.5 26.5t-42.5 10.5t-39 3q-37 0 -73 -11q-78 -28 -110 -131zM49 518q23 79 62 117t72 55.5t69.5 27t65.5 12.5
t67 3q72 0 113.5 -10.5t57 -15.5t44 -20.5t50.5 -39.5q51 -49 74 -127.5t23 -160.5q0 -81 -23 -161.5t-75.5 -129.5t-123.5 -66t-138 -17t-129 15q-21 4 -38.5 10.5t-43.5 20.5t-52.5 38.5t-45 57.5t-35 91t-16.5 143q0 83 22 157zM357 791h-119v127h119v-127zM531 791h-119
v127h119v-127z" />
    <glyph glyph-name="multiply" unicode="&#xd7;" horiz-adv-x="832" 
d="M173 126l173 173l-176 175l71 71l176 -176l170 172l70 -70l-171 -171l177 -177l-71 -70l-176 176l-173 -172z" />
    <glyph glyph-name="Oslash" unicode="&#xd8;" horiz-adv-x="773" 
d="M160 41l-41 -49h-96l81 100q-24 29 -41 71t-26.5 94.5t-9.5 102.5q0 88 26 169t72 122.5t114.5 61.5t150.5 20q31 0 72.5 -5t66 -12.5t41 -14.5t30.5 -15l37 41h95l-74 -88q43 -43 65 -115.5t22 -158.5q0 -46 -6 -89.5t-19 -81.5q-12 -42 -31 -72q-17 -32 -73 -84
t-223 -52h-46q-23 3 -68.5 8t-118.5 47zM561 523l-309 -378q24 -24 59.5 -36.5t72.5 -12.5q70 0 132 39.5t76 180.5l2 45q0 42 -6 73.5t-11.5 49t-15.5 39.5zM207 211l305 375q-31 16 -52 22.5t-38 8.5t-35 2q-102 0 -154.5 -59t-52.5 -181q0 -38 7.5 -85t19.5 -83z" />
    <glyph glyph-name="Ugrave" unicode="&#xd9;" horiz-adv-x="768" 
d="M72 283v436h151v-432q0 -20 2 -40.5t7.5 -47t23 -48t49.5 -33t80 -11.5q64 0 98.5 20t48 57.5t13.5 102.5v432h150v-436q0 -28 -2 -56t-5 -55q-8 -45 -57.5 -112.5t-245.5 -67.5q-199 0 -245.5 62.5t-53 86t-9.5 37.5t-3 32q-1 14 -1.5 26.5t-0.5 24.5v22zM367 924
l96 -139h-68l-172 139h144z" />
    <glyph glyph-name="Uacute" unicode="&#xda;" horiz-adv-x="768" 
d="M72 283v436h151v-432q0 -20 2 -40.5t7.5 -47t23 -48t49.5 -33t80 -11.5q64 0 98.5 20t48 57.5t13.5 102.5v432h150v-436q0 -28 -2 -56t-5 -55q-8 -45 -57.5 -112.5t-245.5 -67.5q-199 0 -245.5 62.5t-53 86t-9.5 37.5t-3 32q-1 14 -1.5 26.5t-0.5 24.5v22zM375 785h-68
l95 139h145z" />
    <glyph glyph-name="Ucircumflex" unicode="&#xdb;" horiz-adv-x="768" 
d="M72 283v436h151v-432q0 -20 2 -40.5t7.5 -47t23 -48t49.5 -33t80 -11.5q64 0 98.5 20t48 57.5t13.5 102.5v432h150v-436q0 -28 -2 -56t-5 -55q-8 -45 -57.5 -112.5t-245.5 -67.5q-199 0 -245.5 62.5t-53 86t-9.5 37.5t-3 32q-1 14 -1.5 26.5t-0.5 24.5v22zM299 785h-69
l96 139h117l96 -139h-68l-86 72z" />
    <glyph glyph-name="Udieresis" unicode="&#xdc;" horiz-adv-x="768" 
d="M72 283v436h151v-432q0 -20 2 -40.5t7.5 -47t23 -48t49.5 -33t80 -11.5q64 0 98.5 20t48 57.5t13.5 102.5v432h150v-436q0 -28 -2 -56t-5 -55q-8 -45 -57.5 -112.5t-245.5 -67.5q-199 0 -245.5 62.5t-53 86t-9.5 37.5t-3 32q-1 14 -1.5 26.5t-0.5 24.5v22zM357 791h-119
v127h119v-127zM531 791h-119v127h119v-127z" />
    <glyph glyph-name="Yacute" unicode="&#xdd;" horiz-adv-x="619" 
d="M232 0v316l-271 403h168l178 -276l179 276h174l-275 -403v-316h-153zM301 785h-69l96 139h145z" />
    <glyph glyph-name="Thorn" unicode="&#xde;" horiz-adv-x="744" 
d="M408 160h-183v-160h-151v719h151v-139h177h22q54 0 106 -5q44 -6 79 -24t58 -46.5t30 -49t8 -25t4.5 -23t3.5 -36.5q0 -51 -19.5 -95.5t-58.5 -68.5t-66 -31.5t-42.5 -10t-33.5 -2.5zM400 453h-175v-164h183q137 0 137 82q0 37 -23 54q-22 19 -44.5 22.5t-47.5 4.5t-30 1
z" />
    <glyph glyph-name="germandbls" unicode="&#xdf;" horiz-adv-x="689" 
d="M531 461l-109 -65q-18 -9 -18 -15q1 -1 6 -5.5t14 -8.5l97 -41q50 -18 73.5 -42.5t33 -45.5t9.5 -43l1 -23q0 -37 -9 -66.5t-29 -54.5t-49 -37q-27 -14 -67 -14h-183v109h121q68 0 80 43l1 15q0 43 -25.5 55.5t-45.5 21t-51.5 21t-59.5 31t-38 40.5q-6 18 -6 35
q0 53 25 68.5t50 32.5t38.5 24t29 17.5t24.5 16.5t9 31q0 32 -15 43t-49 11l-32 3l-29 1q-76 0 -76 -51v-568h-145v424h-99v103h99v30v35t3.5 41t17.5 46t44 29q30 11 80 11h144q24 0 37.5 -1.5t40 -7t53.5 -23.5t41.5 -50.5t14.5 -69.5q0 -35 -13 -62t-39 -44z" />
    <glyph glyph-name="agrave" unicode="&#xe0;" horiz-adv-x="635" 
d="M303 418h-233v109h285q51 0 93.5 -10t83 -52.5t40.5 -134.5v-330h-373q-78 0 -120 42q-44 40 -44 114v14q5 45 21 74.5t45 46t62.5 23t82.5 6.5h184q0 42 -15.5 63.5t-42 28t-69.5 6.5zM256 105h174v110h-164q-35 0 -59.5 -10.5t-24.5 -44.5q0 -23 10.5 -35.5t25 -16
t38.5 -3.5zM289 729l96 -139h-69l-171 139h144z" />
    <glyph glyph-name="aacute" unicode="&#xe1;" horiz-adv-x="635" 
d="M303 418h-233v109h285q51 0 93.5 -10t83 -52.5t40.5 -134.5v-330h-373q-78 0 -120 42q-44 40 -44 114v14q5 45 21 74.5t45 46t62.5 23t82.5 6.5h184q0 42 -15.5 63.5t-42 28t-69.5 6.5zM256 105h174v110h-164q-35 0 -59.5 -10.5t-24.5 -44.5q0 -23 10.5 -35.5t25 -16
t38.5 -3.5zM297 590h-68l95 139h145z" />
    <glyph glyph-name="acircumflex" unicode="&#xe2;" horiz-adv-x="635" 
d="M303 418h-233v109h285q51 0 93.5 -10t83 -52.5t40.5 -134.5v-330h-373q-78 0 -120 42q-44 40 -44 114v14q5 45 21 74.5t45 46t62.5 23t82.5 6.5h184q0 42 -15.5 63.5t-42 28t-69.5 6.5zM256 105h174v110h-164q-35 0 -59.5 -10.5t-24.5 -44.5q0 -23 10.5 -35.5t25 -16
t38.5 -3.5zM221 590h-69l96 139h117l96 -139h-68l-86 72z" />
    <glyph glyph-name="atilde" unicode="&#xe3;" horiz-adv-x="635" 
d="M303 418h-233v109h285q51 0 93.5 -10t83 -52.5t40.5 -134.5v-330h-373q-78 0 -120 42q-44 40 -44 114v14q5 45 21 74.5t45 46t62.5 23t82.5 6.5h184q0 42 -15.5 63.5t-42 28t-69.5 6.5zM256 105h174v110h-164q-35 0 -59.5 -10.5t-24.5 -44.5q0 -23 10.5 -35.5t25 -16
t38.5 -3.5zM199 596h-49q27 112 102 112l28 -2l34 -8l33 -9l23 -3q34 0 44 37h49q-14 -63 -41 -88.5t-61 -25.5q-23 0 -46 6.5t-44.5 10.5t-27.5 4q-34 0 -44 -34z" />
    <glyph glyph-name="adieresis" unicode="&#xe4;" horiz-adv-x="635" 
d="M303 418h-233v109h285q51 0 93.5 -10t83 -52.5t40.5 -134.5v-330h-373q-78 0 -120 42q-44 40 -44 114v14q5 45 21 74.5t45 46t62.5 23t82.5 6.5h184q0 42 -15.5 63.5t-42 28t-69.5 6.5zM256 105h174v110h-164q-35 0 -59.5 -10.5t-24.5 -44.5q0 -23 10.5 -35.5t25 -16
t38.5 -3.5zM279 596h-119v127h119v-127zM453 596h-119v127h119v-127z" />
    <glyph glyph-name="aring" unicode="&#xe5;" horiz-adv-x="635" 
d="M303 418h-233v109h285q51 0 93.5 -10t83 -52.5t40.5 -134.5v-330h-373q-78 0 -120 42q-44 40 -44 114v14q5 45 21 74.5t45 46t62.5 23t82.5 6.5h184q0 42 -15.5 63.5t-42 28t-69.5 6.5zM256 105h174v110h-164q-35 0 -59.5 -10.5t-24.5 -44.5q0 -23 10.5 -35.5t25 -16
t38.5 -3.5zM234 748q35 35 77 35q22 0 36 -6t25 -13.5t19 -14.5q16 -18 25.5 -40.5t9.5 -41.5q0 -42 -33.5 -75.5t-76.5 -33.5q-31 0 -56 16q-25 14 -42 41t-17 58q0 42 33 75zM283 701q-12 -12 -12 -28q0 -18 13.5 -31.5t30.5 -13.5q16 0 28.5 12t12.5 29q0 18 -14.5 31
t-30.5 13q-14 0 -28 -12z" />
    <glyph glyph-name="ae" unicode="&#xe6;" horiz-adv-x="906" 
d="M297 418h-227v109h274q31 0 57.5 -5t49 -16.5t43.5 -32.5q26 21 42.5 28.5t34 13t31.5 8t25.5 3.5t34.5 1h217v-109h-191q-43 0 -70.5 -7.5t-39.5 -24t-16.5 -30.5t-4.5 -36h322v-105h-324q0 -32 8.5 -54t31 -37t91.5 -15h193v-109h-234q-107 0 -157 59v-59h-289
q-78 0 -120 42q-44 40 -44 114v14q5 45 21 74.5t45 46t62.5 23t82.5 6.5h176q0 61 -31 79.5t-94 18.5zM256 109h166v106h-156q-36 0 -61 -10.5t-25 -44.5t18.5 -42.5t57.5 -8.5z" />
    <glyph glyph-name="ccedilla" unicode="&#xe7;" horiz-adv-x="527" 
d="M330 113h18h146v-113h-187q-59 0 -109.5 13.5t-89.5 50t-59 90.5t-20 108q0 38 8 72.5t27 69.5t43 61q35 34 71.5 44t68.5 14t60 4h187v-115h-146l-14 1h-18q-51 0 -95.5 -26.5t-44.5 -124.5q0 -96 46 -122.5t108 -26.5zM152 -197v60l38 -9l41 -8l38 -3q38 0 45 16l5 16
q0 27 -64 27h-19v104h55v-45q81 0 98 -31.5t17 -54.5q0 -36 -27 -65.5t-92 -29.5q-45 0 -135 23z" />
    <glyph glyph-name="egrave" unicode="&#xe8;" horiz-adv-x="527" 
d="M498 109v-109h-203q-135 0 -200.5 72t-65.5 192t51 176.5t102.5 71.5t112.5 15h203v-109h-184q-45 0 -71 -7t-41 -29q-18 -23 -18 -64h314v-111h-314q0 -41 14.5 -62.5t41.5 -29.5q26 -6 73 -6h185zM289 729l96 -139h-69l-171 139h144z" />
    <glyph glyph-name="eacute" unicode="&#xe9;" horiz-adv-x="527" 
d="M498 109v-109h-203q-135 0 -200.5 72t-65.5 192t51 176.5t102.5 71.5t112.5 15h203v-109h-184q-45 0 -71 -7t-41 -29q-18 -23 -18 -64h314v-111h-314q0 -41 14.5 -62.5t41.5 -29.5q26 -6 73 -6h185zM297 590h-68l95 139h145z" />
    <glyph glyph-name="ecircumflex" unicode="&#xea;" horiz-adv-x="527" 
d="M498 109v-109h-203q-135 0 -200.5 72t-65.5 192t51 176.5t102.5 71.5t112.5 15h203v-109h-184q-45 0 -71 -7t-41 -29q-18 -23 -18 -64h314v-111h-314q0 -41 14.5 -62.5t41.5 -29.5q26 -6 73 -6h185zM221 590h-69l96 139h117l96 -139h-68l-86 72z" />
    <glyph glyph-name="edieresis" unicode="&#xeb;" horiz-adv-x="527" 
d="M498 109v-109h-203q-135 0 -200.5 72t-65.5 192t51 176.5t102.5 71.5t112.5 15h203v-109h-184q-45 0 -71 -7t-41 -29q-18 -23 -18 -64h314v-111h-314q0 -41 14.5 -62.5t41.5 -29.5q26 -6 73 -6h185zM279 596h-119v127h119v-127zM453 596h-119v127h119v-127z" />
    <glyph glyph-name="igrave" unicode="&#xec;" horiz-adv-x="266" 
d="M61 527h144v-527h-144v527zM117 729l96 -139h-68l-172 139h144z" />
    <glyph glyph-name="iacute" unicode="&#xed;" horiz-adv-x="266" 
d="M61 527h144v-527h-144v527zM125 590h-68l95 139h145z" />
    <glyph glyph-name="icircumflex" unicode="&#xee;" horiz-adv-x="266" 
d="M61 527h144v-527h-144v527zM49 590h-69l96 139h117l96 -139h-68l-86 72z" />
    <glyph glyph-name="idieresis" unicode="&#xef;" horiz-adv-x="266" 
d="M61 527h144v-527h-144v527zM107 596h-119v127h119v-127zM281 596h-119v127h119v-127z" />
    <glyph glyph-name="eth" unicode="&#xf0;" horiz-adv-x="611" 
d="M277 584l-177 -45l-18 61l135 35l-19 15l-31 24l-60 45h151l84 -53l179 45l16 -61l-131 -33q26 -22 49.5 -47.5t53 -67t52.5 -108t23 -134.5q0 -34 -7.5 -74.5t-34 -80t-54 -58.5t-47.5 -28.5t-55 -19t-82 -9.5q-48 0 -116 19.5t-115.5 89t-47.5 151.5q0 81 40 141
t90 86.5t107 26.5q49 0 101 -20q-38 64 -86 100zM258 113q11 -4 22 -6t25 -2q41 0 76.5 22.5t44.5 48t11 41t2 30.5q0 48 -20.5 85.5t-61.5 52.5q-27 8 -50 8q-43 0 -79 -22t-48 -62q-10 -27 -10 -60q0 -46 23 -83.5t65 -52.5z" />
    <glyph glyph-name="ntilde" unicode="&#xf1;" horiz-adv-x="600" 
d="M199 0h-138v527h261q73 0 121 -17t74 -59.5t26 -116.5v-334h-141v316q0 16 -1.5 30.5t-6.5 31t-24 24.5t-59 8h-112v-410zM176 596h-49q5 19 11.5 36t18.5 37t30.5 29.5t41.5 9.5q17 0 27 -2l35 -8l32 -9l24 -3q34 0 44 37h48q-14 -64 -39.5 -89t-62.5 -25q-24 0 -61 11
q-12 2 -31.5 6t-25.5 4q-33 0 -43 -34z" />
    <glyph glyph-name="ograve" unicode="&#xf2;" horiz-adv-x="609" 
d="M506 63q-38 -35 -78 -49.5t-67 -19.5t-56 -5q-55 0 -110 19.5t-91.5 54.5t-52.5 76.5t-21 68t-5 56.5q0 57 15.5 96.5t29 60.5t42 49.5t81 48t112.5 19.5q57 0 109.5 -18.5t82 -47t43.5 -50t29 -60t15 -98.5q0 -57 -19.5 -109.5t-58.5 -91.5zM258 111q8 -4 20.5 -6
t24.5 -2q43 0 78 25t46.5 61t11.5 73q0 53 -19.5 92.5t-62.5 57.5q-28 10 -51 10q-26 0 -54 -11q-27 -13 -45 -33t-27.5 -49t-9.5 -67q0 -51 21.5 -92t66.5 -59zM287 729l96 -139h-69l-171 139h144z" />
    <glyph glyph-name="oacute" unicode="&#xf3;" horiz-adv-x="609" 
d="M506 63q-38 -35 -78 -49.5t-67 -19.5t-56 -5q-55 0 -110 19.5t-91.5 54.5t-52.5 76.5t-21 68t-5 56.5q0 57 15.5 96.5t29 60.5t42 49.5t81 48t112.5 19.5q57 0 109.5 -18.5t82 -47t43.5 -50t29 -60t15 -98.5q0 -57 -19.5 -109.5t-58.5 -91.5zM258 111q8 -4 20.5 -6
t24.5 -2q43 0 78 25t46.5 61t11.5 73q0 53 -19.5 92.5t-62.5 57.5q-28 10 -51 10q-26 0 -54 -11q-27 -13 -45 -33t-27.5 -49t-9.5 -67q0 -51 21.5 -92t66.5 -59zM295 590h-68l95 139h145z" />
    <glyph glyph-name="ocircumflex" unicode="&#xf4;" horiz-adv-x="609" 
d="M506 63q-38 -35 -78 -49.5t-67 -19.5t-56 -5q-55 0 -110 19.5t-91.5 54.5t-52.5 76.5t-21 68t-5 56.5q0 57 15.5 96.5t29 60.5t42 49.5t81 48t112.5 19.5q57 0 109.5 -18.5t82 -47t43.5 -50t29 -60t15 -98.5q0 -57 -19.5 -109.5t-58.5 -91.5zM258 111q8 -4 20.5 -6
t24.5 -2q43 0 78 25t46.5 61t11.5 73q0 53 -19.5 92.5t-62.5 57.5q-28 10 -51 10q-26 0 -54 -11q-27 -13 -45 -33t-27.5 -49t-9.5 -67q0 -51 21.5 -92t66.5 -59zM219 590h-69l96 139h117l96 -139h-68l-86 72z" />
    <glyph glyph-name="otilde" unicode="&#xf5;" horiz-adv-x="609" 
d="M506 63q-38 -35 -78 -49.5t-67 -19.5t-56 -5q-55 0 -110 19.5t-91.5 54.5t-52.5 76.5t-21 68t-5 56.5q0 57 15.5 96.5t29 60.5t42 49.5t81 48t112.5 19.5q57 0 109.5 -18.5t82 -47t43.5 -50t29 -60t15 -98.5q0 -57 -19.5 -109.5t-58.5 -91.5zM258 111q8 -4 20.5 -6
t24.5 -2q43 0 78 25t46.5 61t11.5 73q0 53 -19.5 92.5t-62.5 57.5q-28 10 -51 10q-26 0 -54 -11q-27 -13 -45 -33t-27.5 -49t-9.5 -67q0 -51 21.5 -92t66.5 -59zM197 596h-49q27 112 102 112l28 -2l34 -8l33 -9l23 -3q34 0 44 37h49q-14 -63 -41 -88.5t-61 -25.5
q-23 0 -62 11q-45 10 -57 10q-33 0 -43 -34z" />
    <glyph glyph-name="odieresis" unicode="&#xf6;" horiz-adv-x="609" 
d="M506 63q-38 -35 -78 -49.5t-67 -19.5t-56 -5q-55 0 -110 19.5t-91.5 54.5t-52.5 76.5t-21 68t-5 56.5q0 57 15.5 96.5t29 60.5t42 49.5t81 48t112.5 19.5q57 0 109.5 -18.5t82 -47t43.5 -50t29 -60t15 -98.5q0 -57 -19.5 -109.5t-58.5 -91.5zM258 111q8 -4 20.5 -6
t24.5 -2q43 0 78 25t46.5 61t11.5 73q0 53 -19.5 92.5t-62.5 57.5q-28 10 -51 10q-26 0 -54 -11q-27 -13 -45 -33t-27.5 -49t-9.5 -67q0 -51 21.5 -92t66.5 -59zM277 596h-119v127h119v-127zM451 596h-119v127h119v-127z" />
    <glyph glyph-name="divide" unicode="&#xf7;" horiz-adv-x="832" 
d="M123 348h584v-98h-584v98zM416 498q24 0 40 -16t16 -41q0 -24 -16 -40t-40 -16t-40.5 16.5t-16.5 39.5q0 24 16.5 40.5t40.5 16.5zM417 211q24 0 40.5 -16.5t16.5 -39.5q0 -24 -16.5 -40.5t-40.5 -16.5t-40 16t-16 41q0 24 16 40t40 16z" />
    <glyph glyph-name="oslash" unicode="&#xf8;" horiz-adv-x="611" 
d="M123 -8h-88l67 74q-14 18 -25 34t-22.5 35t-21 54t-9.5 74q0 41 8.5 71.5t17 50t20.5 39.5q18 26 40.5 46t52 34.5t50.5 19.5t41.5 8t30.5 3h13q44 0 82 -9q18 -3 37.5 -10.5t41.5 -17.5l31 37h88l-64 -78q35 -42 52.5 -93t17.5 -106q0 -45 -11 -83t-40.5 -82
t-83.5 -72.5t-125 -28.5l-27 -1q-72 0 -143 36zM430 355l-200 -236q34 -22 78 -22q16 0 25 2t29.5 9.5t40.5 28.5t31 52t11 72q0 49 -15 94zM186 170l199 238q-20 10 -40.5 16t-41.5 6q-57 0 -98 -39q-42 -44 -42 -119q0 -53 23 -102z" />
    <glyph glyph-name="ugrave" unicode="&#xf9;" horiz-adv-x="602" 
d="M398 527h139v-527h-262q-71 0 -119 18.5t-73.5 61t-25.5 113.5v334h138v-324q0 -32 8 -52t28 -28t54 -8h113v412zM283 729l96 -139h-68l-172 139h144z" />
    <glyph glyph-name="uacute" unicode="&#xfa;" horiz-adv-x="602" 
d="M398 527h139v-527h-262q-71 0 -119 18.5t-73.5 61t-25.5 113.5v334h138v-324q0 -32 8 -52t28 -28t54 -8h113v412zM291 590h-68l95 139h145z" />
    <glyph glyph-name="ucircumflex" unicode="&#xfb;" horiz-adv-x="602" 
d="M398 527h139v-527h-262q-71 0 -119 18.5t-73.5 61t-25.5 113.5v334h138v-324q0 -32 8 -52t28 -28t54 -8h113v412zM215 590h-69l96 139h117l96 -139h-68l-86 72z" />
    <glyph glyph-name="udieresis" unicode="&#xfc;" horiz-adv-x="602" 
d="M398 527h139v-527h-262q-71 0 -119 18.5t-73.5 61t-25.5 113.5v334h138v-324q0 -32 8 -52t28 -28t54 -8h113v412zM273 596h-119v127h119v-127zM447 596h-119v127h119v-127z" />
    <glyph glyph-name="yacute" unicode="&#xfd;" horiz-adv-x="602" 
d="M285 115h113v412h139v-513q0 -67 -21 -112t-66 -68t-110 -23h-274v107h248q42 0 63 20t21 62h-123q-74 0 -121.5 19.5t-72 63t-24.5 118.5v326h136v-314q0 -25 1.5 -36t8 -27.5t26 -25.5t56.5 -9zM291 590h-68l95 139h145z" />
    <glyph glyph-name="thorn" unicode="&#xfe;" horiz-adv-x="611" 
d="M320 0h-121v-189h-140v908h140v-192h129q56 0 104.5 -17t81 -49.5t50.5 -79.5q11 -25 16.5 -50t5.5 -54v-19q0 -101 -57 -178q-26 -32 -58 -49t-69 -24t-82 -7zM199 412v-299h52q68 0 105.5 9t60 42t22.5 103v10q0 82 -38.5 109.5t-113.5 27.5l-39 -1h-27z" />
    <glyph glyph-name="ydieresis" unicode="&#xff;" horiz-adv-x="602" 
d="M285 115h113v412h139v-513q0 -67 -21 -112t-66 -68t-110 -23h-274v107h248q42 0 63 20t21 62h-123q-74 0 -121.5 19.5t-72 63t-24.5 118.5v326h136v-314q0 -25 1.5 -36t8 -27.5t26 -25.5t56.5 -9zM273 596h-119v127h119v-127zM447 596h-119v127h119v-127z" />
    <glyph glyph-name="dotlessi" unicode="&#x131;" horiz-adv-x="266" 
d="M61 527h144v-527h-144v527z" />
    <glyph glyph-name="Lslash" unicode="&#x141;" horiz-adv-x="168" 
d="M260 717l-278 -717h-76l280 717h74z" />
    <glyph glyph-name="OE" unicode="&#x152;" horiz-adv-x="1201" 
d="M1145 719v-125h-249q-54 0 -91.5 -19.5t-52 -48.5t-20 -51t-5.5 -49h418v-125h-420q0 -42 9 -76.5t32 -59.5t53 -32.5t77 -7.5h249v-125h-256q-50 0 -88 6q-39 8 -76 25t-69 45q-68 -46 -131 -68t-138 -22q-93 0 -161.5 24t-112.5 70.5t-65 117t-21 161.5
q0 123 38.5 206.5t119 125t202.5 41.5q82 0 127.5 -16t76 -33t65.5 -42q33 28 70 46t65 22t55.5 7t46.5 3h252zM531 160q26 29 40.5 83.5t14.5 114.5q0 59 -14.5 115.5t-39.5 83.5t-65 43q-40 14 -81 14q-40 0 -82 -14q-39 -15 -65 -44t-36.5 -69.5t-13.5 -66.5t-3 -62
q0 -61 13.5 -114.5t39 -81.5t65.5 -43t83 -15q41 0 81 15t63 41z" />
    <glyph glyph-name="oe" unicode="&#x153;" horiz-adv-x="920" 
d="M258 111q8 -4 20.5 -6t24.5 -2q43 0 78 25t47 61.5t12 73.5q0 51 -21 91.5t-62 57.5q-28 10 -50 10q-13 0 -27 -3t-28 -8q-29 -15 -41.5 -29.5t-19 -25.5t-14 -33.5t-7.5 -60.5q0 -51 21.5 -92t66.5 -59zM891 109v-109h-203h-12q-14 0 -29.5 0.5t-41 4t-52 19.5t-51.5 46
q-36 -27 -65 -42.5t-63.5 -25.5t-68.5 -10h-7h-6q-53 0 -104.5 20t-88 57.5t-55.5 85.5t-19 109q0 59 15 96.5t30 60t34 39.5q37 37 88 56t113 19t107.5 -19.5t89.5 -60.5q33 42 77 57t109 15h203v-109h-186q-66 0 -97.5 -20t-31.5 -80h315v-111h-315q0 -42 17 -64
q13 -21 38.5 -27.5t73.5 -6.5h186z" />
    <glyph glyph-name="Scaron" unicode="&#x160;" horiz-adv-x="756" 
d="M285 719h397v-129h-373q-118 0 -118 -94q0 -40 27 -58q26 -20 69 -20h199q58 0 103 -8q41 -9 84.5 -48.5t43.5 -146.5q0 -29 -4.5 -53.5t-18 -57.5t-46 -58t-77.5 -35q-41 -11 -106 -11h-402v129h378q56 0 86.5 16.5t30.5 62.5l-1 15q-3 31 -16 45q-17 15 -38.5 20
t-51.5 5h-178q-115 0 -177.5 48t-62.5 161q0 57 19 102t52 69.5t76 34.5q39 11 105 11zM291 938l86 -72l86 72h68l-95 -139h-118l-95 139h68z" />
    <glyph glyph-name="scaron" unicode="&#x161;" horiz-adv-x="594" 
d="M410 0h-357v109h293q74 0 74 53q0 51 -74 51h-121q-26 0 -41 1t-43 5.5t-51 20t-35 46t-12 73.5q0 168 186 168h298v-109h-246h-10h-13q-63 0 -70 -35l-2 -17q0 -44 66 -44h127q38 0 69.5 -8.5t55.5 -27t37.5 -47t13.5 -65.5q0 -45 -13 -76t-25 -46.5t-37 -33.5t-70 -18z
M207 729l86 -73l86 73h68l-95 -140h-118l-95 140h68z" />
    <glyph glyph-name="Ydieresis" unicode="&#x178;" horiz-adv-x="619" 
d="M232 0v316l-271 403h168l178 -276l179 276h174l-275 -403v-316h-153zM273 824h-119v127h119v-127zM447 824h-119v127h119v-127z" />
    <glyph glyph-name="florin" unicode="&#x192;" horiz-adv-x="773" 
d="M504 719h119v-117l-11 1h-14l-29 1q-50 0 -61 -10q-13 -9 -18 -39l-25 -116h123v-117h-147l-56 -291l-10 -52q-9 -42 -20.5 -72t-35.5 -50.5t-51 -26t-50 -7.5t-48 -2h-14l-16 1h-35v117h15q39 0 59.5 4.5t33 20.5t19.5 54l63 304h-107v117h130l28 141q7 31 13 50.5
t17 41t41.5 34.5t86.5 13z" />
    <glyph glyph-name="circumflex" unicode="&#x2c6;" 
d="M164 590h-68l95 139h118l95 -139h-68l-86 72z" />
    <glyph glyph-name="caron" unicode="&#x2c7;" 
d="M164 729l86 -73l86 73h68l-95 -140h-118l-95 140h68z" />
    <glyph glyph-name="breve" unicode="&#x2d8;" 
d="M96 729h64q15 -59 90 -59q78 0 90 59h64q-9 -50 -25 -79.5t-48 -44.5t-81 -15t-80.5 15t-48 44.5t-25.5 79.5z" />
    <glyph glyph-name="ring" unicode="&#x2da;" horiz-adv-x="328" 
d="M164 715q39 0 74 -21t55 -55t20 -73q0 -13 -3 -27t-10.5 -33.5t-30.5 -42.5t-49.5 -34t-55.5 -11q-38 0 -73 20q-34 22 -53.5 56t-19.5 72q0 28 12 57t32 49t46 32q28 11 56 11zM164 652q-39 0 -61 -25.5t-22 -60.5t22.5 -60.5t60.5 -25.5q39 0 61.5 25.5t22.5 60.5
q0 36 -22 61t-62 25z" />
    <glyph glyph-name="tilde" unicode="&#x2dc;" 
d="M143 596h-49q11 42 25.5 66.5t34.5 36.5q18 9 41 9q19 0 29 -2l34 -8l32 -9l23 -3q34 0 44 37h49q-14 -63 -41 -88.5t-61 -25.5q-12 0 -24.5 2t-36.5 9q-12 2 -31.5 6t-25.5 4q-33 0 -43 -34z" />
    <glyph glyph-name="endash" unicode="&#x2013;" 
d="M500 207h-500v125h500v-125z" />
    <glyph glyph-name="emdash" unicode="&#x2014;" horiz-adv-x="1000" 
d="M2 207l-2 125h998l2 -125h-998z" />
    <glyph glyph-name="quoteleft" unicode="&#x2018;" horiz-adv-x="197" 
d="M39 679v40h119v-125h-54v-96q-39 33 -52.5 66t-13.5 84l1 15v16z" />
    <glyph glyph-name="quoteright" unicode="&#x2019;" horiz-adv-x="197" 
d="M96 498v96h-57v125h119l1 -19v-24l1 -34q0 -17 -1 -27t-5 -30t-19 -43.5t-39 -43.5z" />
    <glyph glyph-name="quotesinglbase" unicode="&#x201a;" horiz-adv-x="214" 
d="M94 -94v94h-55v125h119l1 -16v-18v-36q0 -48 -12 -80t-53 -69z" />
    <glyph glyph-name="quotedblleft" unicode="&#x201c;" horiz-adv-x="367" 
d="M39 679v40h119v-125h-54v-96q-39 33 -52.5 66t-13.5 84l1 15v16zM209 679v40h119v-125h-55v-96q-26 22 -42 47q-14 25 -18 47q-5 19 -5 55l1 16v16z" />
    <glyph glyph-name="quotedblright" unicode="&#x201d;" horiz-adv-x="367" 
d="M264 498v96h-55v125h119l1 -15v-18v-38q0 -49 -12 -82t-53 -68zM94 498v96h-55v125h119l1 -15v-18v-38q0 -49 -12 -82t-53 -68z" />
    <glyph glyph-name="quotedblbase" unicode="&#x201e;" horiz-adv-x="367" 
d="M264 -94v94h-55v125h119l1 -16v-18v-36q0 -48 -12 -80t-53 -69zM94 -94v94h-55v125h119l1 -16v-18v-36q0 -48 -12 -80t-53 -69z" />
    <glyph glyph-name="dagger" unicode="&#x2020;" 
d="M324 -94h-148v489h-147v123h147v201h148v-201h147v-123h-147v-489z" />
    <glyph glyph-name="daggerdbl" unicode="&#x2021;" 
d="M324 -94h-148v207h-147v123h147v170h-147v121h147v192h148v-192h147v-121h-147v-170h147v-123h-147v-207z" />
    <glyph glyph-name="bullet" unicode="&#x2022;" horiz-adv-x="197" 
d="M33 414q24 39 64 39q19 0 37.5 -9.5t30 -27t11.5 -37.5q0 -21 -17.5 -49.5t-57.5 -28.5q-30 0 -54.5 21.5t-24.5 53.5q0 18 11 38z" />
    <glyph glyph-name="ellipsis" unicode="&#x2026;" horiz-adv-x="1000" 
d="M225 0h-120v125h120v-125zM557 0h-119v125h119v-125zM891 0h-120v125h120v-125z" />
    <glyph glyph-name="perthousand" unicode="&#x2030;" horiz-adv-x="1352" 
d="M143 336q-85 22 -104 82t-19 106t12.5 85.5t40.5 66t58 34t45.5 9.5t35.5 2q32 0 93.5 -14.5t79 -78t17.5 -104.5q0 -19 -3 -40.5t-17.5 -75.5t-102.5 -72q-33 -9 -68 -9t-68 9zM275 438q24 26 24 86q0 28 -6 51.5t-17 35t-26.5 18t-21.5 7.5t-16 1q-40 0 -64 -26
q-23 -28 -23 -87q0 -58 23.5 -85.5t63.5 -27.5t63 27zM635 717l-280 -717h-78l280 717h78zM643 0q-43 12 -71 38t-40 64.5t-12 85.5t14.5 95t63.5 75.5t112 27.5q38 0 69 -7q44 -12 72 -39.5t39.5 -68.5t11.5 -83t-11 -83q-27 -84 -85 -98t-95 -14t-68 7zM775 102
q24 27 24 87q0 61 -23.5 87.5t-64.5 26.5q-40 0 -57 -19t-23 -43t-6 -52q0 -26 6 -49.5t23 -43.5t57 -20q41 0 64 26zM1072 0q-86 26 -104.5 85t-18.5 103q0 45 12.5 85t39.5 65t61 37q38 11 78 11q38 0 98.5 -16t81.5 -99q5 -13 10 -40l3 -45q0 -42 -13 -81
q-12 -41 -33.5 -61t-38.5 -29.5t-42.5 -15.5t-64.5 -6q-38 0 -69 7zM1205 102q23 28 23 87q0 60 -23 87t-63 27t-63 -26t-23 -88q0 -59 22 -86t63 -27q42 0 64 26z" />
    <glyph glyph-name="guilsinglleft" unicode="&#x2039;" horiz-adv-x="398" 
d="M197 438h149l-176 -174l172 -174h-153l-164 174z" />
    <glyph glyph-name="guilsinglright" unicode="&#x203a;" horiz-adv-x="398" 
d="M174 90h-149l176 174l-172 174h153l164 -174z" />
    <glyph glyph-name="trademark" unicode="&#x2122;" horiz-adv-x="832" 
d="M184 658h-82v57h236v-57h-82v-211h-72v211zM457 447h-64v268h95l63 -162l58 162h96v-268h-64v199l-77 -199h-29l-78 199v-199z" />
    <glyph glyph-name="minus" unicode="&#x2212;" horiz-adv-x="387" 
d="M361 207h-336v125h336v-125z" />
    <glyph glyph-name="fi" unicode="&#xf001;" horiz-adv-x="646" 
d="M252 0h-145v422h-99v105h99v30v35t3.5 41t17.5 46t44 29q30 11 80 11h133v-104l-22 2l-36 1q-42 0 -57 -13q-19 -10 -19 -46l1 -7v-8v-17h133v-105h-133v-422zM436 527h144v-527h-144v527zM436 719h144v-131h-144v131z" />
    <glyph glyph-name="fl" unicode="&#xf002;" horiz-adv-x="645" 
d="M252 0h-145v422h-99v105h99v30v35t3.5 41t17.5 46t44 29q30 11 80 11h133v-104l-22 2l-36 1q-42 0 -57 -13q-19 -10 -19 -46l1 -7v-8v-17h133v-105h-133v-422zM434 719h146v-719h-146v719z" />
  </font>
</defs>
</svg>
