<?xml version="1.0" encoding="utf-8"?>
<!-- Generator: Adobe Illustrator 19.2.0, SVG Export Plug-In . SVG Version: 6.00 Build 0)  -->
<svg version="1.1" id="Layer_1" xmlns="http://www.w3.org/2000/svg" xmlns:xlink="http://www.w3.org/1999/xlink" x="0px" y="0px"
	 viewBox="0 0 75 75" style="enable-background:new 0 0 75 75;" xml:space="preserve">
<g>
	<g>
		<path d="M64.2,9.9c0-0.6-0.5-1-1-1h-62c-0.6,0-1,0.5-1,1v43.9c0,0.6,0.5,1,1,1h30v9.4H19c-0.6,0-1,0.5-1,1s0.5,1,1,1h26.6
			c0.6,0,1-0.5,1-1s-0.5-1-1-1H33.3v-9.4h13.8c0.6,0,1-0.5,1-1s-0.5-1-1-1H2.3V10.9h60v18.4h-9.6c-0.6,0-1,0.5-1,1v34.9
			c0,0.6,0.5,1,1,1h21.1c0.6,0,1-0.5,1-1V30.3c0-0.6-0.5-1-1-1h-9.6L64.2,9.9L64.2,9.9z M72.9,31.3v32.9H53.8V31.3H72.9z"/>
	</g>
</g>
</svg>
