<?xml version="1.0" encoding="utf-8"?>
<!-- Generator: Adobe Illustrator 19.2.0, SVG Export Plug-In . SVG Version: 6.00 Build 0)  -->
<svg version="1.1" id="Layer_1" xmlns="http://www.w3.org/2000/svg" xmlns:xlink="http://www.w3.org/1999/xlink" x="0px" y="0px"
	 viewBox="0 0 75 75" style="enable-background:new 0 0 75 75;" xml:space="preserve">
<path d="M73.5,38.1c0.3-0.4,0.3-0.9,0-1.2C62.4,23.2,50.4,16.2,38,16.2C16.9,16.2,2.1,36,1.5,36.9c-0.3,0.4-0.3,0.9,0,1.2
	C12.6,51.8,24.6,58.7,37,58.7C58.1,58.8,72.9,38.9,73.5,38.1z M37,56.7c-11.6,0-22.9-6.5-33.4-19.3C6.3,34.1,20,18.2,38,18.2
	c11.6,0,22.9,6.5,33.4,19.3C68.7,40.9,55.1,56.7,37,56.7z M37.5,26.2c-6.2,0-11.3,5.1-11.3,11.3s5.1,11.3,11.3,11.3
	s11.3-5.1,11.3-11.3S43.7,26.2,37.5,26.2z M37.5,46.8c-5.1,0-9.3-4.2-9.3-9.3s4.2-9.3,9.3-9.3s9.3,4.2,9.3,9.3S42.6,46.8,37.5,46.8z
	"/>
</svg>
