<?xml version="1.0" encoding="utf-8"?>
<!-- Generator: Adobe Illustrator 19.0.1, SVG Export Plug-In . SVG Version: 6.00 Build 0)  -->
<svg version="1.1" id="Magnifying_glass" xmlns="http://www.w3.org/2000/svg" xmlns:xlink="http://www.w3.org/1999/xlink" x="0px"
	 y="0px" viewBox="-389 391 20 20" style="enable-background:new -389 391 20 20;" xml:space="preserve">
<style type="text/css">
	.st0{fill:#FFFFFF;}
</style>
<path class="st0" d="M-371.5,406.5l-3.8-3.8c0.6-0.9,0.9-2,0.9-3.2c0-3.4-3-6.4-6.4-6.4c-3.4,0-6.2,2.8-6.2,6.2c0,3.4,3,6.4,6.4,6.4
	c1.1,0,2.2-0.3,3.1-0.8l3.8,3.8c0.4,0.4,1,0.4,1.3,0l0.9-0.9C-370.9,407.3-371.1,406.8-371.5,406.5z M-385,399.3
	c0-2.4,1.9-4.3,4.3-4.3c2.4,0,4.5,2.1,4.5,4.5c0,2.4-1.9,4.3-4.3,4.3C-382.9,403.8-385,401.7-385,399.3z"/>
</svg>
