<?xml version="1.0" encoding="iso-8859-1"?>
<!-- Generator: Adobe Illustrator 16.0.0, SVG Export Plug-In . SVG Version: 6.00 Build 0)  -->
<!DOCTYPE svg PUBLIC "-//W3C//DTD SVG 1.1//EN" "http://www.w3.org/Graphics/SVG/1.1/DTD/svg11.dtd">
<svg version="1.1" id="Capa_1" xmlns="http://www.w3.org/2000/svg" xmlns:xlink="http://www.w3.org/1999/xlink" x="0px" y="0px"
	 width="184.671px" height="184.671px" viewBox="0 0 184.671 184.671" style="enable-background:new 0 0 184.671 184.671;"
	 xml:space="preserve">
<g>
	<g>
		<path d="M171.738,66.855L126.393,47.16c0.217-1.453,0.327-2.925,0.327-4.403c0-7.783-3.021-14.872-7.947-20.165
			c3.393-2.739,6.932-4.513,7.898-4.151c0,0,0.015,0.013,0.041,0.048c1.096,1.508,3.207,1.84,4.713,0.744
			c1.508-1.097,1.842-3.207,0.744-4.715c-1.189-1.637-2.897-2.604-4.938-2.797c-2.82-0.266-5.98,1.102-8.682,2.759
			c-0.153-4.968-1.402-10.963-6.037-13.942c-1.568-1.009-3.656-0.555-4.664,1.013c-1.008,1.568-0.555,3.656,1.014,4.664
			c2.543,1.636,3.074,6.691,2.906,10.821c-4.33-2.481-9.34-3.908-14.678-3.908c-16.337,0-29.629,13.291-29.629,29.629
			c0,0.99,0.051,1.969,0.146,2.935L13.051,67.002c-0.018,0.007-0.027,0.017-0.043,0.024c-0.194,0.079-0.383,0.171-0.562,0.286
			c-0.962,0.622-1.542,1.688-1.542,2.834v72.449c0,1.278,0.722,2.447,1.865,3.02l77.363,38.7c0.475,0.236,0.992,0.355,1.51,0.355
			c0.504,0,1.009-0.112,1.474-0.339l78.75-38.25c1.163-0.564,1.901-1.743,1.901-3.036V70.146c0-0.025-0.004-0.049-0.006-0.073
			C173.813,68.727,173.048,67.424,171.738,66.855z M97.091,19.878c12.615,0,22.879,10.264,22.879,22.879
			c0,1.894-0.23,3.775-0.688,5.593c-2.555,10.179-11.68,17.286-22.191,17.286c-12.614,0-22.878-10.263-22.878-22.879
			C74.214,30.142,84.477,19.878,97.091,19.878z M97.091,72.386c12.277,0,23.094-7.493,27.524-18.638l37.651,16.354l-69.93,31.444
			l-69.341-31.18l46.076-17.999C73.073,64,84.118,72.386,97.091,72.386z M17.655,75.364l71.307,32.064v34.553l-71.199-34.94
			c-0.036-0.018-0.072-0.03-0.108-0.047V75.364z M17.655,114.508L88.962,149.5v26.683l-71.307-35.671V114.508z M95.712,175.568
			v-26.064l48.326-23.589c1.676-0.818,2.37-2.839,1.553-4.514s-2.836-2.371-4.514-1.553L95.71,141.992v-34.565l71.308-32.064v31.824
			l-7.247,3.538c-1.676,0.817-2.37,2.838-1.553,4.514c0.584,1.198,1.785,1.895,3.035,1.895c0.498,0,1.002-0.109,1.479-0.343
			l4.286-2.092v26.234L95.712,175.568z"/>
		<path d="M147.894,89.87c-5.583,0-10.126,4.542-10.126,10.125s4.542,10.126,10.126,10.126c5.583,0,10.126-4.543,10.126-10.126
			S153.478,89.87,147.894,89.87z M147.894,103.372c-1.861,0-3.376-1.514-3.376-3.376c0-1.861,1.514-3.375,3.376-3.375
			c1.861,0,3.376,1.514,3.376,3.375S149.755,103.372,147.894,103.372z"/>
		<path d="M114.675,106.372c-5.584,0-10.125,4.542-10.125,10.126c0,5.583,4.541,10.126,10.125,10.126
			c5.582,0,10.125-4.543,10.125-10.126C124.8,110.914,120.257,106.372,114.675,106.372z M114.675,119.873
			c-1.861,0-3.375-1.514-3.375-3.376c0-1.861,1.514-3.376,3.375-3.376s3.375,1.514,3.375,3.376S116.537,119.873,114.675,119.873z"/>
		<path d="M72.618,126.948c5.583,0,10.126-4.543,10.126-10.126s-4.543-10.126-10.126-10.126c-5.583,0-10.126,4.542-10.126,10.126
			C62.493,122.405,67.035,126.948,72.618,126.948z M72.618,113.446c1.861,0,3.376,1.514,3.376,3.376
			c0,1.861-1.514,3.376-3.376,3.376c-1.861,0-3.376-1.514-3.376-3.376C69.243,114.961,70.757,113.446,72.618,113.446z"/>
		<path d="M39.858,111.322c5.583,0,10.126-4.543,10.126-10.126S45.441,91.07,39.858,91.07s-10.126,4.542-10.126,10.126
			C29.732,106.779,34.274,111.322,39.858,111.322z M39.858,97.82c1.862,0,3.376,1.514,3.376,3.376c0,1.861-1.514,3.376-3.376,3.376
			c-1.861,0-3.376-1.514-3.376-3.376C36.482,99.335,37.996,97.82,39.858,97.82z"/>
	</g>
</g>
<g>
</g>
<g>
</g>
<g>
</g>
<g>
</g>
<g>
</g>
<g>
</g>
<g>
</g>
<g>
</g>
<g>
</g>
<g>
</g>
<g>
</g>
<g>
</g>
<g>
</g>
<g>
</g>
<g>
</g>
</svg>
