<?xml version="1.0" encoding="utf-8"?>
<!-- Generator: Adobe Illustrator 19.2.0, SVG Export Plug-In . SVG Version: 6.00 Build 0)  -->
<svg version="1.1" id="Layer_1" xmlns="http://www.w3.org/2000/svg" xmlns:xlink="http://www.w3.org/1999/xlink" x="0px" y="0px"
	 viewBox="0 0 75 75" style="enable-background:new 0 0 75 75;" xml:space="preserve">
<path d="M42.3,64.5v-34c0-0.6-0.5-1-1-1H7.2c-0.6,0-1,0.5-1,1v34c0,0.6,0.5,1,1,1h34.1C41.8,65.6,42.3,65.1,42.3,64.5z M40.2,63.5
	h-32v-32h32V63.5z M60.3,48.7v-1.2c0-19.9-16.2-36-36.1-36c-0.6,0-1-0.5-1-1s0.5-1,1-1c21,0,38.1,17.1,38.1,38.1v1l4.8-4.8
	c0.4-0.4,1-0.4,1.4,0s0.4,1,0,1.4l-6.6,6.6c-0.2,0.2-0.4,0.3-0.7,0.3s-0.5-0.1-0.7-0.3L54,45.3c-0.4-0.4-0.4-1,0-1.4s1-0.4,1.4,0
	L60.3,48.7z"/>
</svg>
