<?xml version="1.0" encoding="utf-8"?>
<!-- Generator: Adobe Illustrator 19.2.0, SVG Export Plug-In . SVG Version: 6.00 Build 0)  -->
<svg version="1.1" id="Layer_1" xmlns="http://www.w3.org/2000/svg" xmlns:xlink="http://www.w3.org/1999/xlink" x="0px" y="0px"
	 viewBox="0 0 75 75" style="enable-background:new 0 0 75 75;" xml:space="preserve">
<path d="M53.7,13.7H25.3l8-8c0.4-0.4,0.4-1,0-1.4s-1-0.4-1.4,0l-9.6,9.6c-0.4,0.4-0.4,1,0,1.4L32,25c0.2,0.2,0.5,0.3,0.7,0.3
	c0.3,0,0.5-0.1,0.7-0.3c0.4-0.4,0.4-1,0-1.4l-7.8-7.8h28.1c5.7,0,10.4,4.7,10.4,10.4s-4.7,10.4-10.4,10.4H21.3
	c-6.9,0-12.4,5.6-12.4,12.4c0,6.9,5.6,12.4,12.4,12.4H46l-7.9,7.9c-0.4,0.4-0.4,1,0,1.4c0.2,0.2,0.5,0.3,0.7,0.3
	c0.3,0,0.5-0.1,0.7-0.3l9.7-9.7c0.4-0.4,0.4-1,0-1.4L39.6,50c-0.4-0.4-1-0.4-1.4,0s-0.4,1,0,1.4l8,8H21.3c-5.7,0-10.4-4.7-10.4-10.4
	s4.7-10.4,10.4-10.4h32.4c6.9,0,12.4-5.6,12.4-12.4C66.1,19.3,60.6,13.7,53.7,13.7z"/>
</svg>
