<?xml version="1.0" encoding="utf-8"?>
<!-- Generator: Adobe Illustrator 17.0.0, SVG Export Plug-In . SVG Version: 6.00 Build 0)  -->
<!DOCTYPE svg PUBLIC "-//W3C//DTD SVG 1.1//EN" "http://www.w3.org/Graphics/SVG/1.1/DTD/svg11.dtd">
<svg version="1.1" xmlns="http://www.w3.org/2000/svg" xmlns:xlink="http://www.w3.org/1999/xlink" x="0px" y="0px"
	 width="757.848px" height="405.048px" viewBox="0 0 757.848 405.048" enable-background="new 0 0 757.848 405.048"
	 xml:space="preserve">
<g id="Background">
</g>
<g id="Objects">
	<g>
		<g>
			<path fill="#707070" d="M321.403,23.635c1.366-0.846,32.514-20.145,35.438-22.004c0.25-0.131,0.396-0.234,0.477-0.321
				l0.074-0.051l-0.01-0.033c0.047-0.085,0.041-0.156,0.031-0.228c-0.01-0.072-0.089-0.365-0.44-0.472
				c-0.212-0.101-0.504-0.114-0.868-0.114c-7.219,0-74.615,4.996-78.597,5.302l-1.637-2.046l0.588,1.953l-40.477-5.105L235.684,0
				l-0.251,0.353l-0.417-0.168l0.029,0.459l-45.992,15.453l-0.291-0.568l-0.339,0.693h-38.102l-0.781-0.484l0.038,0.696
				l-32.813,15.116l-0.655-0.225l0.047,0.33l-21.313,2.17l-0.228-0.172l-0.179,0.189H50.12L46.414,33.1l2.875,1.528L42.276,46.9
				l-0.585-0.107l0.121,0.321l-20.153,4.397L2.541,71.754L0,72.299l2.696,0.515l13.486,3.709l-0.302,0.138l1.66,0.255l15.949,17.761
				l-0.517,0.385l0.964,0.194l16.245,33.229l-0.316,0.577h0.752l23.356,18.612l-0.335,0.349l0.776,0.109l14.741,34.272l-2.852,3.756
				l3.617-3.041l53.803,18.553l6.009,16.613h-0.529l0.679,0.699l-3.249,8.663l-0.035,17.934l-0.863,0.742l1.035,0.057l5.737,18.01
				l-0.919,0.755h1.315l19.445,22.38l-0.173,0.321l0.376,0.079l5.109,25.141l-1.484,1.051l1.562-0.174l1.475,39.673l-0.605,0.751
				h0.796l12.888,38.017l-0.278,0.596h0.778l28.704,11.139l-15.683-11.992l-1.474-22.844l0.064-0.137l-0.018-0.031l7.328-21.253
				l0.321-0.124l-0.024-0.05l9.692-4.845l1.644,1.248l-0.965-1.929l12.203-29.213l19.63-12.223l0.662-0.137l-0.305-0.532
				l1.07-24.245l0.31-0.545h0.802l-0.555-0.436l9.905-17.453l0.265-0.445l-0.009-0.007l0.249-0.439l-0.811,0.029l-19.263-14.068
				l-18.253-18.998l-0.072-0.388l-0.388,0.073l-26.378-10.987l0.095-0.336l-0.662,0.081l-20.445-10.955l0.421-1.679l-1.316,1.405
				h-35.037l-11.464-21.818l-0.096-0.184l-25.921-10.368l5.624-14.764l38.385,9.408l2.29-22.903l26.661-21.473l0.633-0.004
				l-0.162-0.401l26.938-23.991l0.643-0.089l-0.108-0.194l31.622-15.075l4.3-0.596l-4.23-0.488l-23.962-20.275l0.73-2.584
				l-1.652,2.217h-19.549l-0.166-0.529l-0.419,0.45l-17.023-5.238l25.884-5.11l0.226,0.44l0.422-0.583l33.257-9.168l0.015,0.238
				l0.454-0.277l22.437,18.423l0.169,0.488l0.517-0.293l28.45-6.565l-0.025,0.846l0.741-0.853l0.791,0.415l-0.278-0.922
				L321.403,23.635z M252.375,29.563l27.443,14.388L261.06,54.576L252.375,29.563z M252.375,28.293l15.861-13.562l12.469,5.004
				l6.096,20.261l-5.818,3.295L252.375,28.293z M190.019,17.984c8.726,4.047,21.461,9.805,25.488,10.853L203.85,44.953
				L190.019,17.984z M190.288,16.868l43.879-14.743c-4.338,6.081-16.409,23.044-18.016,25.776
				C213.935,27.574,199.792,21.271,190.288,16.868z M287.804,39.428l-5.764-19.157l8.127,3.262l-0.435,14.803L287.804,39.428z
				 M289.693,39.65l-0.162,5.518l-1.395-4.636L289.693,39.65z M278.621,8.907l10.345,12.932l-7.341-2.947L278.621,8.907z
				 M280.289,18.356l-11.089-4.451l7.754-6.63L280.289,18.356z M278.539,7.004l41.293,4.817l-28.905,10.668L278.539,7.004z
				 M290.838,39.002l13.365-7.57L290.6,47.091L290.838,39.002z M290.876,37.688l0.416-14.135l29.077-10.731l-13.956,16.065
				L290.876,37.688z M321.502,13.232l-0.728,7.521l-11.428,6.473L321.502,13.232z M333.073,15.079
				c-5.027,3.118-9.393,5.825-11.298,7.006l0.062-0.642L333.073,15.079z M321.97,20.076l0.784-8.104
				c14.51-4.101,22.962-6.584,27.876-8.129L321.97,20.076z M322.871,10.771l0.09-0.932l-0.959,1.104l-38.827-4.529
				c15.943-1.173,59.504-4.344,70.823-4.817C348.177,3.51,333.532,7.754,322.871,10.771z M268.023,13.433L239.889,2.141
				l36.036,4.535L268.023,13.433z M235.171,2.653l2.094,33.128l-19.942-7.667C219.087,25.314,228.373,12.182,235.171,2.653z
				 M236.346,3.406l14.271,24.805l-12.232,7.446L236.346,3.406z M236.93,2.165l30.128,12.092l-15.531,13.28L236.93,2.165z
				 M287.133,41.1l1.935,6.429l-6.899-3.617L287.133,41.1z M307.136,29.771l13.506-7.65l-0.073,0.75l-25.805,21.141L307.136,29.771z
				 M187.871,17.347l-8.322,17.001l-27.416-17.001H187.871z M199.965,76.083l-19.04-2.721l13.599-14.624L199.965,76.083z
				 M201.785,76.343l11.859-15.916l-4.225,14.948l25.498,2.942l-32.905,4.561l-0.651-5.855l0.825-0.622L201.785,76.343z
				 M206.252,93.191l-31.094,4.3l26.132-13.231L206.252,93.191z M200.743,83.276l-23.437,11.867l23.013-17.334l0.581,5.223
				l-0.271,0.037L200.743,83.276z M199.349,77.131l-26.375,19.868l7.199-22.608L199.349,77.131z M171.851,96.816L158.384,61.94
				l20.724,12.086L171.851,96.816z M150.914,119.741l0.349,0.349l-0.368-1.342l11.037-0.07l-8.829,19.041L150.914,119.741z
				 M19.703,74.915l-14.046-2.68l37.6-8.079L19.703,74.915z M21.092,76.325l-1.324-0.203l0.076-0.035L21.092,76.325z M47.776,63.328
				l3.452,17.603l-29.616-5.652L47.776,63.328z M94.738,35.155l21.796,16.428l-27.976-9.922L94.738,35.155z M117.309,53.051
				l-25.221,2.858l-3.699-13.115L117.309,53.051z M94.049,127.937l6.82-15.004l25.523,22.763l-32.127-7.519l0.231-0.24H94.049z
				 M66.525,100.672l7.004-23.435l25.646,33.711l-32.544-10.178l0.037-0.069L66.525,100.672z M139.982,83.989l-22.201-13.876
				l2.4-15.604l13.006,12.829L139.982,83.989z M134.425,67.396l21.582-5.824l-14.731,22.61L134.425,67.396z M119.365,90.005
				l7.391,22.174l-22.604-30.677l14.012,7.751l-1.422,0.274L119.365,90.005z M117.89,71.506l21.771,13.6l-19.391,3.742
				L117.89,71.506z M119.084,88.477l-15.802-8.741l13.449-8.405L119.084,88.477z M102.421,78.947l-9.543-21.132l23.176,12.611
				L102.421,78.947z M100.964,78.454l-0.769-0.426l0.744,1.01L74.472,75.6L91.51,57.518L100.964,78.454z M74.57,76.747l27.018,3.509
				l-1.404,30.176L74.57,76.747z M102.37,112.778l25.483,3.099v19.616L102.37,112.778z M101.26,111.51l1.402-30.134l24.529,33.288
				L101.26,111.51z M120.96,91.233l9.107,7.694l-1.884,13.973L120.96,91.233z M131.07,99.897l17.524,17.524l-19.546-2.528
				L131.07,99.897z M130.615,97.851l-0.355-0.356l-0.015,0.11l-8.479-7.162l12.847,2.339L130.615,97.851z M122.844,89.496
				l16.94-3.269l-4.382,5.556L122.844,89.496z M140.914,86.611l1.783,6.5l-6.042-1.101L140.914,86.611z M142.308,87.443l6.283,6.741
				l-4.667-0.849L142.308,87.443z M142.054,85.165l0.486-0.615l-0.184,0.035l14.797-22.711l13.745,35.596L142.054,85.165z
				 M135.154,66.034l16.306-20.722l5.096,14.947L135.154,66.034z M133.611,66.177l-12.74-12.567l29.266-8.436L133.611,66.177z
				 M120.259,52.616l-2.78-19.632l32.313,11.119L120.259,52.616z M116.735,69.516l-21.7-11.808l0.111,0.021l-1.605-0.853
				l25.584-2.899L116.735,69.516z M90.773,55.39l-0.298-0.162l0.011,0.024L53.715,35.707l33.39,6.678L90.773,55.39z M73.194,75.316
				L49.976,62.841l40.198-5.545L73.194,75.316z M71.784,75.835l-19.408,5.108L48.97,63.578L71.784,75.835z M48.558,61.902
				l-5.117-13.645l44.687,8.187L48.558,61.902z M51.814,82.433l12.722,17.838l-28.869-5.813L51.814,82.433z M52.869,81.976
				l19.612-5.161L65.6,99.838L52.869,81.976z M65.942,102.03l25.883,25.908H51.763L65.942,102.03z M67.806,102.315l32.092,10.037
				L93,127.528L67.806,102.315z M93.133,129.356l17.858,22.762l-35.017-4.903L93.133,129.356z M94.601,129.411l32.702,7.654
				l-14.957,14.957L94.601,129.411z M128.387,137.572l20.564,23.701l-35.552-8.714L128.387,137.572z M128.978,117.09l1.097,1.489
				l-0.842-2.527l19.597,2.534l-19.852,16.942V117.09z M131.416,98.652l4.45-5.642l7.16,1.304l6.029,21.977L131.416,98.652z
				 M144.254,94.538l5.342,0.973v18.505L144.254,94.538z M143.384,86.948l24.101,10.287l-17.047-2.719L143.384,86.948z
				 M150.721,95.715l1.005,0.183l-0.041-0.044l18.97,3.026l-19.934,18.043V95.715z M151.628,117.619l18.6-16.836l-7.774,16.767
				L151.628,117.619z M171.855,99.948l0.098,0.254l0.012-0.037l6.984,17.281l-15.252,0.096L171.855,99.948z M158.463,60.684
				l16.409-8.204l4.108,20.169L158.463,60.684z M173.769,51.773l-16.162,8.082l-5.056-14.831l20.467,6.498l-0.041,0.008
				L173.769,51.773z M152.199,43.732l-1.42-25.901l28.349,17.579l-4.24,15.525L152.199,43.732z M149.643,17.641l1.409,25.706
				l-32.789-11.282L149.643,17.641z M116.313,32.769l2.732,19.299L96.16,34.818L116.313,32.769z M93.369,34.963l-5.972,6.286
				l-0.68-0.242l0.046,0.162l-31.02-6.204L93.369,34.963z M50.282,35.156l37.925,20.158l-44.758-8.2L50.282,35.156z M22.237,52.535
				l19.973-4.358l5.224,13.93L4.48,71.337L22.237,52.535z M16.558,75.46l1.376,0.263l-0.158,0.072L16.558,75.46z M19.292,77.185
				l31.234,4.805L34.378,94.015L19.292,77.185z M35.325,95.536l29.625,5.966l-14.107,25.775L35.325,95.536z M52.423,129.062h39.434
				l-17.1,17.798L52.423,129.062z M75.718,148.314l35.549,4.977l-21.33,28.083L75.718,148.314z M106.293,169.352l35.279,30.389
				l-50.649-17.465L106.293,169.352z M161.487,230.93l-13.58-3.474l2.842-7.58L161.487,230.93z M233.32,256.903l-36.06-26.868
				l30.05-5.657L233.32,256.903z M254.971,273.868l-19.282-15.15l28.923-1.034L254.971,273.868z M206.185,310.703l0.293-0.06
				c0.001,0,0.002,0,0.002,0c3.872,0,17.626,1.374,26.845,2.402l-11.609,27.792C218.962,335.337,208.768,315.039,206.185,310.703z
				 M195.241,355.723l7.893,13.484l-9.538,20.389L195.241,355.723z M194.331,353.244h-13.376l19.397-24.086L194.331,353.244z
				 M201.682,328.477l8.816,18.649l-14.919,5.765L201.682,328.477z M200.237,325.421l-20.204-11.732l24.51-2.724l-3.379,14.874
				l-1.136-0.863L200.237,325.421z M195.538,230.359l9.851,25.817l-25.844-23.802l15.578-1.989l-0.016,0.055L195.538,230.359z
				 M186.291,264.904l19.881-5.93l-1.395,33.485L186.291,264.904z M164.622,232.892l0.451,0.115l-0.463-0.477l12.933-0.004
				l-3.624,13.508L164.622,232.892z M163.842,231.406v-11.32l12.936,11.32H163.842z M174.874,246.816l3.345-12.468l5.975,27.36
				l-9.297-14.255l0.726-0.596L174.874,246.816z M205.253,258.075l-19.435,5.797l-6.613-30.282l26.121,24.058h-0.917
				L205.253,258.075z M205.829,294.526l30.46-17.405l-30.46,31.798V294.526z M205.871,293.207l1.407-33.76l0.867,0.798l-0.334-0.876
				l30.385,15.367L205.871,293.207z M207.106,257.523l-9.996-26.197l35.328,26.322h-25.085l0.008-0.202L207.106,257.523z
				 M178.764,231.344l-1.832-14.657l17.483,12.654L178.764,231.344z M177.534,230.573l-13.084-11.45l11.286-2.944L177.534,230.573z
				 M173.02,246.713l-24.436-1.358l14.594-12.556L173.02,246.713z M174.023,248.172l10.337,15.85h-29.632L174.023,248.172z
				 M185.45,265.67l18.581,27.696l-30.151-6.31L185.45,265.67z M180.376,312.519l24.328-17.232v14.529L180.376,312.519z
				 M202.158,326.535l3.359-14.778c2.251,3.954,9.345,17.914,14.661,28.518l-17.858-13.56l0.048-0.059L202.158,326.535z
				 M210.838,309.736l27.498-5.71l-4.508,7.942C221.965,310.637,214.974,309.997,210.838,309.736z M206.926,309.4l32.342-33.763
				l7.629,13.304l-7.823,13.783L206.926,309.4z M247.548,290.073l5.581,9.731l-12.588,2.615L247.548,290.073z M247.543,287.804
				l-7.19-12.536h14.186l-0.01,0.226L247.543,287.804z M253.501,274.143h-13.708l-4.57-14.361L253.501,274.143z M238.44,273.6
				l-29.315-14.827h24.541l0.142,0.769l0.113-0.145L238.44,273.6z M195.573,228.792l-17.87-12.934l22.294-2.723L195.573,228.792z
				 M175.595,215.054l-10.575,2.759l13.689-14.617l-2.946,11.766l-0.176,0.021L175.595,215.054z M162.718,230.583l-10.854-11.173
				h10.854V230.583z M147.722,228.569l14.374,3.677l-14.374,12.368V228.569z M147.945,246.446l24.735,1.373l-19.239,15.804
				L147.945,246.446z M154.391,265.146h30.063l-11.536,21.323L154.391,265.146z M173.748,288.177l30.142,6.31l-25.235,17.875
				L173.748,288.177z M178.868,314.312l21.802,12.659l-20.383,25.31L178.868,314.312z M194.18,354.369l-1.703,35.07l-11.911-35.07
				H194.18z M214.532,400.213l-18.633-7.231h9.178L214.532,400.213z M204.667,391.857H193.78l9.568-20.456L204.667,391.857z
				 M203.635,367.837l-8.045-13.744l14.749-5.699L203.635,367.837z M211.528,346.672l-8.519-18.019l17.693,13.433L211.528,346.672z
				 M235.715,310.922l4.087-7.201l11.22-2.33L235.715,310.922z M253.526,298.237l-5.334-9.299l6.228-10.973L253.526,298.237z
				 M235.319,257.605l10.919-13.991l17.744,12.967L235.319,257.605z M245.392,242.871l-10.933,14.008l-5.806-31.418L245.392,242.871
				z M225.807,223.516l-29.124,5.483l4.454-15.762L225.807,223.516z M198.942,212.131l-21.984,2.685l3.193-12.752L198.942,212.131z
				 M178.484,201.79l-15.233,16.266l-17.65-16.266H178.484z M161.84,218.285h-10.912l-5.455-15.083L161.84,218.285z
				 M142.288,198.872l-33.069-28.485l22.918,9.167L142.288,198.872z M105.823,168.276l-12.522,10.53l17.076-22.484L105.823,168.276z
				 M150.104,160.886l-20.892-24.079l20.515-17.509l2.49,20.454L150.104,160.886z M154.307,137.797l8.868-19.127l14.999-0.095
				L154.307,137.797z M180.004,117.053l-7.31-18.086l32.73-4.527L180.004,117.053z M207.377,92.9l-4.968-8.943l33.453-4.637
				L207.377,92.9z M237.599,77.494l-26.738-3.085l4.456-15.769L237.599,77.494z M213.895,58.208l-12.92,17.339l-5.446-17.361
				L213.895,58.208z M193.748,57.92l-13.634,14.662l-4.097-20.118L193.748,57.92z M176.057,50.921l4.229-15.521l8.497-17.361
				l14.143,27.578L176.057,50.921z M216.716,29.086l19.37,7.447l-30.926,8.527L216.716,29.086z M238.851,36.689l12.224-7.441
				l8.489,24.448L238.851,36.689z M281.003,44.572l7.383,3.871l-23.99,5.536L281.003,44.572z"/>
			<path fill="#707070" d="M367.644,78.441l-14.987-17.385l-7.989,10.849l-7.013,8.394l11.381-0.599v8.197L367.644,78.441z
				 M353.035,63.218l12.536,14.542l-15.294,0.752L353.035,63.218z M349.294,77.623l-3.51-5.338l5.923-8.044L349.294,77.623z
				 M350.16,79.644l13.988-0.688l-13.988,7.108V79.644z M345.045,73.208l3.545,5.391l-8.418,0.443L345.045,73.208z"/>
			<path fill="#707070" d="M595.077,174.108l0.315-0.219l28.039,38.737l-0.125,1.038l8.832-6.234l11.719-8.272l0,0l0.539-0.381
				l-0.869-0.266l-9.451-18.536l33.671-32.561l0.92-0.074l-0.53-0.601l10.19-30.936l16.491,8.42l-13.454,21.607l20.536-13.965
				l0.618,0.691l0.406-16.597l0.6-0.734l-0.846-0.026l-18.577-28.607L670.25,63.994l17.206-4.565l0.375,0.714l0.161-0.43
				l26.13,21.964l1.155-25.4l0.732-0.081l-0.329-0.31l27.595-15.548l-47.419-3.109l-0.468-0.44l-0.103,0.274l-22.515-7.989
				l-0.788-1.5l-0.122,1.375l-65.27-2.225l-0.759-0.572v0.326l-24.985-9.052l-0.14-0.151l-0.282,0.078l-63.202,5.612l-0.255-0.064
				l-0.058,0.069h-23.436l-0.319-0.463l-0.356,0.572l-39.555,15.896l-0.646-0.809l-0.043,0.681l-19.812-7.782l0.457-1.741
				l-1.412,1.558l-32.862-0.037l0.059-1.083l-0.532,0.629l-1.098-2.197l0.389,3.037l-24.631,29.179l0,0l-1.422,1.684l2.254-1.177
				c4.292,2.615,13.195,7.973,15.84,9.075l-0.851,3.159l1.921-3.076c2.32-1.065,12.664-8.8,19.275-13.819l0.065,0.129l0.283-0.313
				l11.215,4.758l-14.939,14.227l-0.03-0.003l-0.022,0.025H383.3l-0.283-0.528l-0.491,0.733l-31.322,14.682L350.174,89l0.318,1.492
				l-9.76,12.109l-0.903-0.103l0.517,0.768c-2.453,6.409-6.507,16.561-7.266,17.339l-0.831,0.831l21.118,2.263l-4.938,5.926
				l-12.157,12.909l-0.871-0.092l0.414,0.675l-17.29,27.589l-1.287,0.135l1.014,0.671l-3.219,14.526l-2.127-0.036l2.195,1.048
				l21.585,31.817l0.073,0.549l0.498-0.172l42.227,9.445l9.259,45.187l-0.057,0.111l0.048,0.074l-4.4,19.435l-0.439,0.323
				l0.506,0.383l23.491,42.132l0.007,1.868l0.928-1.544l17.751-5.796l0.624,1.006l0.16-1.439l24.775-28.103l1.596,0.392
				l-1.246-1.266l-0.689-9.984l0.291,0.036l-0.256-0.601l12.723-17.085l1.001,0.169l-0.711-0.999l-4.818-31.129l29.484-40.306
				l22.608-31.875l0.884,0.367l-0.238-0.538l19.099-0.988l-0.041,0.031l1.533-0.103l24.702,41.805l10.687-20.228l0.474,0.29
				l-0.091-0.787l25.937-15.49L595.077,174.108z M444.094,242.923l19.286-48.859l-4.457,47.145L444.094,242.923z M426.446,328.51
				l-6.472-10.436l9.708-18.689L426.446,328.51z M389.567,272.28l-8.792-42.903l23.473,14.419L389.567,272.28z M334.794,196.204
				l42.962,7.907l-40.063,13.794L334.794,196.204z M391.27,92.332l-23.782,10.306l-1.937,0.001l17.36-25.907L391.27,92.332z
				 M407.188,76.229l28.093,2.742l-41.51,12.533L407.188,76.229z M423.455,60.355l3.167-6.861l9.543,21.996l-12.689-14.805
				l0.234-0.222L423.455,60.355z M400.267,50.978l-2.229-2.456c-0.004-0.095-0.033-0.175-0.06-0.23l0.581-10.68L400.267,50.978z
				 M397.681,33.05l-0.824,15.149c-1.729,0.582-6.517,2.904-20.618,10.252L397.681,33.05z M396.169,49.637
				c-1.927,4.16-5.107,15.641-6.097,19.29c-2.035-0.893-9.689-5.417-14.962-8.619C382.458,56.476,392.511,51.317,396.169,49.637z
				 M397.442,49.536l2.907,3.205l-8.321,13.328C393.869,59.527,396.283,51.636,397.442,49.536z M399.31,34.617l9.94,19.878
				l-7.688-2.251L399.31,34.617z M425.844,51.703l-13.951,2.806l19.051-21.023l-4.69,17.873l-0.675-0.269L425.844,51.703z
				 M427.695,53.143c15.676,6.233,21.392,8.441,23.562,9.091l-12.938,15.396L427.695,53.143z M503.045,38.849l-22.593,6.162
				l12.751-20.454L503.045,38.849z M517.375,24.163l20.247,5.083l-32.059,8.908L517.375,24.163z M604.702,44.926l-62.68-15.735
				l38.325-10.648L604.702,44.926z M669.654,103.999l29.357,11.088l-20.741-0.638L669.654,103.999z M677.219,114.943l-19.576,17.373
				l10.424-28.475L677.219,114.943z M632.755,179.859l-6.703,13.143l-29.533-19.899l31.639-22.015l-0.101,1.533l0.445-0.864
				l4.285,27.899l-0.09,0.087L632.755,179.859z M631.828,206.271l-7.104,5.014l2.018-16.727l15.13,4.623L631.828,206.271z
				 M352.595,168.144l11.669-2.821l-7.859,7.678L352.595,168.144z M355.596,173.792l-11.029,10.775l7.167-15.699L355.596,173.792z
				 M352.933,166.906l13.956-19.819l9.396,6.494l-10.445,10.204L352.933,166.906z M370.317,102.636l19.323-8.376l-8.225,8.372
				L370.317,102.636z M408.003,97.282l-14.083-4.654l40.519-12.23L408.003,97.282z M439.057,78.863l28.771-14.715l-23.575,23.032
				l-4.992-7.82l0.241,0.023L439.057,78.863z M581.472,120.153l21.821-19.886l2.463,34.052L581.472,120.153z M605.007,135.184
				l-18.462,5.727l-5.128-19.488L605.007,135.184z M603.19,98.84l-17.791,16.214l21.127-26.464l-3.202,10.031l-0.146,0.046
				L603.19,98.84z M604.364,99.476l27.154-8.437l-24.694,42.445L604.364,99.476z M627.451,149.757l-32.436,9.155l11.596-22.757
				L627.451,149.757z M608.527,85.279l-1.483-37.16l24.578,41.196l-22.6-3.852l0.161-0.202L608.527,85.279z M630.321,90.234
				l-25.686,7.98l3.74-11.721L630.321,90.234z M580.708,119.125l-11.752-31.604l37.836-1.068L580.708,119.125z M500.845,145.321
				l0.396,0.895l-9.631,11.605l9.724-38.735v26.416L500.845,145.321z M390.504,143.388l30.11,5.132l-33.959,10.179L390.504,143.388z
				 M422.825,149.031c2.762,4.46,8.943,14.613,10.511,17.923l-44.996-7.587L422.825,149.031z M423.028,147.79l-32.249-5.497
				l0.058-0.231l-0.484,0.074l-0.296-0.439l20.626-20.151l4.632,8.784l15.41-6.013l10.985,17.007L423.028,147.79z M416.267,116.091
				l13.364,7.445l-13.789,5.382l-4.32-8.192L416.267,116.091z M410.975,119.689l-4.888-9.269l9.155,5.1L410.975,119.689z
				 M417.107,115.271l3.032-2.963l8.2,9.222L417.107,115.271z M432.024,124.267l18.989,1.356l-8.473,14.914L432.024,124.267z
				 M451.878,126.376l7.839,17.783l-16.266-2.949L451.878,126.376z M452.57,125.158l0.301-0.529l-0.017-0.001l5.922-10.856
				l1.194,28.175L452.57,125.158z M457.989,112.865l-6.368,11.674l-18.287-1.306L457.989,112.865z M442.975,142.266l17.14,3.108
				l0.025,0.589l-24.153,19.564C437.167,162.417,439.22,155.906,442.975,142.266z M459.846,112.467l0.661,0.179l-0.183-0.287
				l39.999,2.637l-39.148,28.827L459.846,112.467z M490.494,83.756l10.589,30.162l-40.484-2.669L490.494,83.756z M502.458,116.821
				l18.881,36.045l-18.881-6.952V116.821z M502.636,114.403l12.602-20.623l23.62,49.177L502.636,114.403z M516.476,93.045
				l51.072-5.433l-3.983,55.962L516.476,93.045z M568.533,89.608l11.335,30.485l-0.285,0.26l0.145,0.085l-14.983,22.389
				L568.533,89.608z M568.665,86.404l-2.189-22.325l39.398,21.275L568.665,86.404z M567.542,86.481l-49.699,5.287l47.496-27.758
				L567.542,86.481z M507.597,39.987l96.394,6.35l-37.692,15.93l-0.011-0.113l-0.524,0.306L507.597,39.987z M515.54,91.812
				l-0.183-0.382l-0.291,0.477l-22.533-9.03l69.455-18.209L515.54,91.812z M514.47,92.879l-12.012,19.659v-2.552l-0.652,2.597
				l-10.122-28.835L514.47,92.879z M490.485,81.679l-18.749-19.632l31.218-21.489L490.485,81.679z M489.677,82.462l-0.725,0.19
				l0.753,0.302l-29.491,27.121l10.969-46.978L489.677,82.462z M459.008,110.296L444.87,88.147l25.017-24.44L459.008,110.296z
				 M468.539,62.52l-28.155,14.4l12.101-14.4H468.539z M453.536,41.141l16.169,20.255h-17.026
				C452.51,59.232,453.068,48.612,453.536,41.141z M457.997,110.802l-28.449-7.685l14.501-14.167L457.997,110.802z M457.526,111.84
				l-26.425,11.113l-10.158-11.428l7.672-7.494L457.526,111.84z M420.195,110.683l-10.443-11.749l17.601,4.755L420.195,110.683z
				 M419.392,111.467l-3.31,3.233l-10.705-5.965l2.951-9.712L419.392,111.467z M404.324,108.33l-20.124-5.073l23.069-4.622
				L404.324,108.33z M399.05,108.16l-16.335-0.817l-0.408-3.403L399.05,108.16z M403.912,109.53l-4.334,11.668l-15.67-12.668
				L403.912,109.53z M381.602,107.506l-10.872,3.977l10.474-7.292L381.602,107.506z M382.108,108.519l17.98,14.537l4.707-12.675
				l5.34,10.128l-20.718,20.241l-8.769-12.991l0.039-0.054l-0.281-0.305l-0.158-0.233l-0.054,0.004l-12.367-13.427L382.108,108.519z
				 M379.952,128.737l8.648,12.812l-1.036,1.013l-19.585,2.989L379.952,128.737z M386.182,143.91l-9.079,8.87l-8.87-6.131
				L386.182,143.91z M377.226,154.232l7.289,5.038l-16.538,3.998L377.226,154.232z M378.046,153.432l10.044-9.813l1.244-0.189
				l-3.813,15.169L378.046,153.432z M386.349,160.173l46.39,7.822l-52.054,34.793L386.349,160.173z M381.319,203.986l50.431-21.191
				l-16.453,37.911L381.319,203.986z M415.78,222.353l25.843,20.675H405.88L415.78,222.353z M405.207,245.335l24.281,50.162
				l-32.286-10.673L405.207,245.335z M406.778,244.152h35.861l-1.054,24.259L406.778,244.152z M441.505,269.727l-2.055,18.236
				l-31.849-41.866L441.505,269.727z M416.279,221.311l0.047-0.099l-0.018-0.009l16.275-37.504l9.845,58.532L416.279,221.311z
				 M432.297,181.345l-47.152,19.814l48.406-32.354L432.297,181.345z M423.924,148.671l17.82-6.168
				c-2.351,8.499-5.953,20.879-7.334,24.112C432.688,162.899,425.789,151.686,423.924,148.671z M434.689,168.722l4.904,3.666
				l-6.022,7.512L434.689,168.722z M440.494,173.062l21.142,15.807l-27.836-7.456L440.494,173.062z M440.297,171.51l-4.629-3.461
				l8.302-1.121L440.297,171.51z M436.142,166.85l22.495-18.221l-13.647,17.026L436.142,166.85z M462.009,146.22l26.593,13.548
				l-41.997,5.669L462.009,146.22z M462.727,145.324l2.44-3.045l35.802-26.363l-10.881,43.347L462.727,145.324z M501.749,147.365
				l9.092,20.565l-19.459-8.073L501.749,147.365z M502.947,147.293l18.687,6.88l-9.599,13.676L502.947,147.293z M503.616,116.607
				l35.757,28.188l-16.617,8.352L503.616,116.607z M517.402,95.688l45.338,48.651h-21.971L517.402,95.688z M562.365,145.458
				l-10.6,8.014l-9.777-8.009L562.365,145.458z M564.357,165.241l-28.849,1.935l16.23-12.272L564.357,165.241z M552.66,154.205
				l10.9-8.241l1.579,18.464L552.66,154.205z M580.301,121.602l5.146,19.556l-20.244,3.008L580.301,121.602z M585.805,142.241
				l7.006,16.376l-26.927-13.422L585.805,142.241z M586.913,141.973l18.376-5.7l-11.315,22.204L586.913,141.973z M594.699,160.17
				l31.026-8.757l-29.754,20.702l-1.359-11.344l0.437,0.218L594.699,160.17z M628.297,148.965l-20.593-13.441l0.078-0.025
				l-0.618-0.361l24.849-42.712L628.297,148.965z M633.093,93.138l9.108,29.351l-0.232,0.185l0.179,0.153l-12.616,24.475
				L633.093,93.138z M642.781,120.562l-9.239-29.77l15.655,2.823L642.781,120.562z M650.261,94.005l16.595,8.816l-23.079,18.411
				L650.261,94.005z M642.723,124.168l0.201,0.648l0.262-1.103l12.189,10.411l-25.213,14.41L642.723,124.168z M656.23,134.932
				l10.107,11.466l-35.076,2.803L656.23,134.932z M656.098,133.264l-12.362-10.56l22.923-18.287L656.098,133.264z M667.349,101.81
				l-16.657-8.849l18.044-27.327L667.349,101.81z M635.474,48.154l36.254-17.683l-2.844,32.344L635.474,48.154z M668.538,63.892
				L650.038,91.91l-14.943-42.695L668.538,63.892z M649.033,92.443l-13.938-2.514l0.046-0.014l-1.831-0.312l1.288-38.402
				L649.033,92.443z M632.233,88.142l-24.661-41.336l0.515,0.13l-0.302-0.328l25.772,2.09L632.233,88.142z M606.957,45.413V28.409
				l25.293,19.055L606.957,45.413z M607.387,84.893l-40.276-21.748l38.753-16.379L607.387,84.893z M600.22,44.961l-92.925-6.121
				l32.535-9.04L600.22,44.961z M563.987,62.98l-72.414,18.985l12.747-42.038L563.987,62.98z M500.913,40.596l-28.497,19.617
				l7.185-13.805L500.913,40.596z M470.773,60.931l-16.245-20.35l23.855,5.729L470.773,60.931z M451.585,61.208
				c-3.042-1.051-14.882-5.697-23.537-9.135l24.395-11.506C451.561,54.398,451.476,59.366,451.585,61.208z M438.011,79.745
				l0.091-0.11l5.328,8.347l-15.143,14.795l-18.832-5.087l28.456-18.173L438.011,79.745z M405.885,97.767l-22.551,4.518l8.585-8.74
				l0.022,0.041l0.29-0.329L405.885,97.767z M366.799,104.13l0.932-0.373h12.128l-12.652,8.809l-1.888-8.304L366.799,104.13z
				 M365.863,111.729l-4.254-4.254l2.593-3.058L365.863,111.729z M356.419,105.053l6.239-0.555l-1.847,2.179l-0.169-0.169
				l-0.105,0.26L356.419,105.053z M360.115,107.811l-5.136,12.689l-0.302-14.955L360.115,107.811z M354.537,104.063l-2.515-11.79
				l11.24,10.532L354.537,104.063z M353.871,121.352l-11.749-17.46l11.422,1.306L353.871,121.352z M361.047,108.504l4.969,4.969
				l-10.231,8.031L361.047,108.504z M366.782,114.268l11.978,13.005l-28.633,2.07l4.297-5.156l0.172,0.256l0.341-0.842
				L366.782,114.268z M378.813,128.397l-12.154,17.067l-16.463-14.998L378.813,128.397z M365.531,147.062l-13.88,19.727
				l-14.098-22.99l28.18,2.966l-0.212,0.298L365.531,147.062z M342.565,186.244l-22.09-14.611l30.217-3.168L342.565,186.244z
				 M342.921,187.746l32.638,14.817l-40.251-7.408L342.921,187.746z M334.023,194.835l-15.963-7.621l23.384,0.401L334.023,194.835z
				 M343.784,186.903l12.51-12.221l21.807,27.801L343.784,186.903z M357.103,173.891l9.3-9.086l18.693-4.519l-0.014,0.058
				l0.114-0.034l-5.614,42.238L357.103,173.891z M414.83,221.73l-9.911,20.699l-23.417-37.1L414.83,221.73z M403.221,241.845
				l-22.695-13.94V205.89L403.221,241.845z M403.632,247.447l-7.355,36.285l-6.293-9.807L403.632,247.447z M396.324,286.069
				l10.63,23.792l-21.177-16.03L396.324,286.069z M397.586,286.136l31.732,10.49L408.6,310.787L397.586,286.136z M408.927,312.618
				l9.625,5.677l-9.543,15.877L408.927,312.618z M409.409,311.596l19.633-13.42l-9.941,19.137L409.409,311.596z M407.941,248.402
				l30.655,40.295l-0.278-0.034l0.684,0.695l-8.221,6.228L407.941,248.402z M439.798,290.167l10.35,10.512l-18.294-4.494
				L439.798,290.167z M442.42,271.643l7.873,18.505l-9.82-1.218L442.42,271.643z M443.717,245.248l19.35,27.176l-20.382-3.44
				L443.717,245.248z M443.445,241.503l-9.922-58.999l30.036,8.045L443.445,241.503z M441.197,172.184l4.388-5.474l43.474-5.869
				l-24.827,28.564L441.197,172.184z M489.344,162.228l-0.03,0.12l1.315-1.585l19.87,8.243L466.4,188.625L489.344,162.228z
				 M522.543,154.836l10.002,12.522l-19.498,1.009L522.543,154.836z M533.765,167.084l-10.379-12.995l16.956-8.522l10.501,8.602
				L533.765,167.084z M565.301,166.305l0.007,0.083l0.019-0.004l2.515,21.763l-32.375-19.842L565.301,166.305z M564.679,145.851
				l27.553,13.734l-25.912,5.441L564.679,145.851z M593.444,160.48l1.423,11.889l-26.542-6.615L593.444,160.48z M597.836,175.348
				l27.7,18.664l-0.079,0.154l0.191,0.058l-2.02,16.758L597.836,175.348z M642.03,198.053l-14.961-4.571l6.317-12.385
				L642.03,198.053z M633.777,178.699l-4.335-28.225l36.541-2.92L633.777,178.699z M657.141,134.265l19.67-17.456l-9.537,28.952
				L657.141,134.265z M680.487,115.643l20.721,0.638l-5.739,7.013L680.487,115.643z M701.511,127.729l-0.048,1.962l-5.105-5.707
				l5.405-6.606L701.511,127.729z M685.13,141.91l10.568-16.975l5.444,6.086L685.13,141.91z M683.15,87.194l17.81,27.428
				l-32.506-12.278l1.411-36.824L683.15,87.194z M670.005,62.896l2.761-31.41l14.152,26.923L670.005,62.896z M695.848,38.766
				l17.618,16.581l-24.872,2.763L695.848,38.766z M713.103,79.352l-23.991-20.167l25.033-2.781L713.103,79.352z M739.431,41.214
				l-24.61,13.865l-17.701-16.66L739.431,41.214z M694.891,38.116l-7.231,19.283l-14.118-26.858L694.891,38.116z M670.097,30.015
				L634.2,47.525l-26.044-19.621L670.097,30.015z M605.832,27.675v16.818l-23.326-25.269L605.832,27.675z M574.456,19.012
				l-34.64,9.625l-19.276-4.839L574.456,19.012z M515.963,24.092l-11.961,14.166l-9.753-14.164L515.963,24.092z M478.952,45.29
				l-24.041-5.774l36.88-14.821L478.952,45.29z M451.648,39.699l-24.161,11.396l4.969-18.935L451.648,39.699z M410.465,54.41
				l-11.222-22.443h31.561L410.465,54.41z M401.135,53.608l0.701,0.773l-0.117-0.92l7.383,2.162
				c-5.596,4.24-13.466,10.084-16.987,12.433L401.135,53.608z M412.224,55.589l13.439-2.703l-3.245,7.028L412.224,55.589z
				 M422.66,61.462l14.169,16.53l-28.595-2.791L422.66,61.462z M405.714,76.203l-13.547,15.421l-8.264-15.421H405.714z
				 M381.367,77.013l-16.966,25.318l-12.315-11.539L381.367,77.013z M350.794,91.909l2.589,12.138l-11.328-1.295L350.794,91.909z
				 M341.114,104.407l12.218,18.157l-18.909-2.025C336.026,117.524,339.702,108.078,341.114,104.407z M348.879,130.788
				l16.225,14.781l-27.438-2.889L348.879,130.788z M336.466,144.177l14.201,23.159l-30.721,3.22L336.466,144.177z M319.231,172.158
				l21.653,14.323l-24.704-0.424L319.231,172.158z M317.114,188.009l16.049,7.662l-0.202,0.196l0.669,0.124l2.723,20.381
				L317.114,188.009z M379.287,204.774l-0.044,0.331l0.159-0.107v22.52l-40.113-8.973L379.287,204.774z M389.587,275.389
				l6.207,9.673l-10.076,7.416L389.587,275.389z M386.632,295.888l21.169,16.023l0.084,22.096L386.632,295.888z M409.714,335.183
				l9.621-16.006l6.635,10.699L409.714,335.183z M427.58,328.482l3.481-31.335l19.846,4.875L427.58,328.482z M451.277,300.22
				l-9.891-10.044l9.276,1.15L451.277,300.22z M451.326,289.704l-8.305-19.521l20.292,3.424L451.326,289.704z M463.394,270.945
				l-19.158-26.906l14.731-1.703L463.394,270.945z M488.602,200.896l-28.41,38.839l4.65-49.186l45.436-20.214L488.602,200.896z
				 M558.007,207.949l-22.704-38.424l32.485,19.91L558.007,207.949z M566.465,166.449l27.6,6.878l-25.075,14.975L566.465,166.449z"
				/>
			<path fill="#707070" d="M668.899,266.906l0.7,2.694l0.286-2.578l52.615-4.863l0.945,0.483l-0.086-0.354l29.044,5.151
				l-34.688-28.035l-0.134-0.109l-44.565-3.745l-15.504-16.98l-0.261-1.007l-0.531,0.722h-41.581l-1.281-0.579l14.74,31.286
				l0.288-0.244L668.899,266.906z M616.177,219.99l29.288,13.25l-16.474,13.946L616.177,219.99z M646.396,233.925l21.379,31.236
				l-37.939-17.217L646.396,233.925z M656.757,220.131l11.266,43.402l-20.826-30.427L656.757,220.131z M670.011,265.882
				l3.208-28.919l47.411,24.24L670.011,265.882z M721.776,260.527l-46.23-23.636l41.363,3.477L721.776,260.527z M723.07,261.095
				l-4.773-19.774l30.002,24.249L723.07,261.095z M672.162,236.283l-3.01,27.127l-11.035-42.509L672.162,236.283z M655.891,219.41
				l-9.566,12.984l-28.701-12.984H655.891z"/>
			<path fill="#707070" d="M724.792,357.072l-0.11-2.641l31.056-26.62l1.739,0.479l-1.417-1.435l-14.198-28.021l-11.542-24.574
				l0.291-1.43l-1.11,0.957l-35.353,3.222l-0.466-1.524l-0.436,1.793l-21.232,15.566l-0.182-0.979l-0.656,1.572l-29.236,17.579
				l-1.718-0.57l1.12,1.278L629.5,336.749h44.691l27.911,14.929l0.827,0.444v-0.347l20.795,2.919L724.792,357.072z M680.308,336.045
				l21.496-28.543v42.64L680.308,336.045z M678.612,334.499l-16.446-16.532l9.251-22.183L678.612,334.499z M677.063,334.537
				l-22.719-9.688l-10.548-12.032l17.402,5.774L677.063,334.537z M676.746,335.624h-2.275l-8.947-4.785L676.746,335.624z
				 M701.744,305.711l-21.057,27.961l13.117-53.935L701.744,305.711z M708.059,294.309l12.948,22.16l-17.927-10.874L708.059,294.309
				z M722.252,316.372l-13.15-22.507l15.51,3.035L722.252,316.372z M725.652,297.673l28.069,28.415l-30.495-8.403L725.652,297.673z
				 M724.794,295.79l-15.561-3.044l19.62-16.915L724.794,295.79z M702.462,304.211l-7.459-24.402l12.323,13.376L702.462,304.211z
				 M722.061,318.423l1.365,32.867l-19.806-44.051L722.061,318.423z M724.623,353l-1.419-34.154l31.227,8.605L724.623,353z
				 M740.852,299.326l12.621,24.909l-27.629-27.969l4.101-20.161L740.852,299.326z M708.034,292.294l-13.106-14.227l33.108-3.019
				L708.034,292.294z M692.833,278.975l-13.262,54.529l-7.329-39.434L692.833,278.975z M670.447,295.187l-9.263,22.213
				l-17.837-5.917L670.447,295.187z M653.086,325.12l-21.528,9.909l10.593-22.382L653.086,325.12z M632.954,335.624l21.033-9.681
				l18.1,9.681H632.954z M676.574,336.749h2.456l0.271,1.459L676.574,336.749z M679.856,337.094l11.674,7.655l-11.977-6.407
				L679.856,337.094z M702.928,350.693v-42.251l20.251,45.042L702.928,350.693z"/>
		</g>
	</g>
	<g>
		<g>
			<circle fill="#5BEAEA" cx="48.366" cy="62.179" r="1.815"/>
			<circle fill="#5BEAEA" cx="200.61" cy="76.995" r="1.815"/>
			<circle fill="#5BEAEA" cx="567.676" cy="86.981" r="1.815"/>
			<circle fill="#5BEAEA" cx="702.366" cy="306.876" r="1.815"/>
			<circle fill="#5BEAEA" cx="185.568" cy="264.154" r="1.815"/>
		</g>
		<g>
			<circle fill="#F4F4F4" cx="3.239" cy="72.115" r="1.815"/>
			<circle fill="#F4F4F4" cx="18.633" cy="75.745" r="1.815"/>
			<circle fill="#F4F4F4" cx="34.2" cy="94.411" r="1.815"/>
			<circle fill="#F4F4F4" cx="65.997" cy="101.005" r="1.815"/>
			<circle fill="#F4F4F4" cx="51.996" cy="81.192" r="1.815"/>
			<circle fill="#F4F4F4" cx="73.678" cy="75.745" r="1.815"/>
			<circle fill="#F4F4F4" cx="48.366" cy="62.179" r="1.815"/>
			<circle fill="#F4F4F4" cx="42.374" cy="47.333" r="1.815"/>
			<circle fill="#F4F4F4" cx="50.181" cy="34.404" r="1.815"/>
			<circle fill="#F4F4F4" cx="91.864" cy="56.686" r="1.815"/>
			<circle fill="#F4F4F4" cx="101.986" cy="79.377" r="1.815"/>
			<circle fill="#F4F4F4" cx="117.356" cy="70.3" r="1.815"/>
			<circle fill="#F4F4F4" cx="119.676" cy="89.512" r="1.815"/>
			<circle fill="#F4F4F4" cx="134.414" cy="66.669" r="1.815"/>
			<circle fill="#F4F4F4" cx="141.276" cy="84.182" r="1.815"/>
			<circle fill="#F4F4F4" cx="136.229" cy="91.327" r="1.815"/>
			<circle fill="#F4F4F4" cx="131.897" cy="99.442" r="1.815"/>
			<circle fill="#F4F4F4" cx="143.177" cy="93.9" r="1.815"/>
			<circle fill="#F4F4F4" cx="150.546" cy="95.716" r="1.815"/>
			<circle fill="#F4F4F4" cx="172.09" cy="98.751" r="1.815"/>
			<circle fill="#F4F4F4" cx="162.932" cy="118.271" r="1.815"/>
			<circle fill="#F4F4F4" cx="179.822" cy="73.93" r="1.815"/>
			<circle fill="#F4F4F4" cx="194.642" cy="57.153" r="1.815"/>
			<circle fill="#F4F4F4" cx="215.014" cy="57.577" r="1.815"/>
			<circle fill="#F4F4F4" cx="239.546" cy="78.81" r="1.815"/>
			<circle fill="#F4F4F4" cx="210.328" cy="75.18" r="1.815"/>
			<circle fill="#F4F4F4" cx="200.61" cy="76.995" r="1.815"/>
			<circle fill="#F4F4F4" cx="201.528" cy="83.275" r="1.815"/>
			<circle fill="#F4F4F4" cx="207.377" cy="92.9" r="1.815"/>
			<circle fill="#F4F4F4" cx="179.822" cy="118.271" r="1.815"/>
			<circle fill="#F4F4F4" cx="175.666" cy="52.004" r="1.815"/>
			<circle fill="#F4F4F4" cx="179.549" cy="34.348" r="1.815"/>
			<circle fill="#F4F4F4" cx="150.546" cy="16.972" r="1.815"/>
			<circle fill="#F4F4F4" cx="188.648" cy="16.972" r="1.815"/>
			<circle fill="#F4F4F4" cx="203.46" cy="46.657" r="1.815"/>
			<circle fill="#F4F4F4" cx="216.675" cy="28.257" r="1.815"/>
			<circle fill="#F4F4F4" cx="237.73" cy="36.163" r="1.815"/>
			<circle fill="#F4F4F4" cx="235.915" cy="1.815" r="1.815"/>
			<circle fill="#F4F4F4" cx="252.035" cy="28.257" r="1.815"/>
			<circle fill="#F4F4F4" cx="260.958" cy="55.926" r="1.815"/>
			<circle fill="#F4F4F4" cx="281.369" cy="43.951" r="1.815"/>
			<circle fill="#F4F4F4" cx="286.8" cy="39.996" r="1.815"/>
			<circle fill="#F4F4F4" cx="290.638" cy="48.847" r="1.815"/>
			<circle fill="#F4F4F4" cx="290.96" cy="38.635" r="1.815"/>
			<circle fill="#F4F4F4" cx="290.96" cy="22.79" r="1.815"/>
			<circle fill="#F4F4F4" cx="281.625" cy="18.892" r="1.815"/>
			<circle fill="#F4F4F4" cx="268.023" cy="13.433" r="1.815"/>
			<circle fill="#F4F4F4" cx="277.507" cy="5.714" r="1.815"/>
			<circle fill="#F4F4F4" cx="321.669" cy="11.618" r="1.815"/>
			<circle fill="#F4F4F4" cx="352.65" cy="61.612" r="1.815"/>
			<circle fill="#F4F4F4" cx="349.697" cy="79.185" r="1.815"/>
			<circle fill="#F4F4F4" cx="345.339" cy="72.662" r="1.815"/>
			<circle fill="#F4F4F4" cx="338.633" cy="79.952" r="1.815"/>
			<circle fill="#F4F4F4" cx="349.697" cy="87.898" r="1.815"/>
			<circle fill="#F4F4F4" cx="366.749" cy="78.137" r="1.815"/>
			<circle fill="#F4F4F4" cx="374.06" cy="59.797" r="1.815"/>
			<circle fill="#F4F4F4" cx="390.379" cy="70.847" r="1.815"/>
			<circle fill="#F4F4F4" cx="397.677" cy="48.884" r="1.815"/>
			<circle fill="#F4F4F4" cx="401.308" cy="53.242" r="1.815"/>
			<circle fill="#F4F4F4" cx="410.482" cy="55.057" r="1.815"/>
			<circle fill="#F4F4F4" cx="398.521" cy="31.17" r="1.815"/>
			<circle fill="#F4F4F4" cx="432.682" cy="31.733" r="1.815"/>
			<circle fill="#F4F4F4" cx="426.637" cy="51.426" r="1.815"/>
			<circle fill="#F4F4F4" cx="423.007" cy="61.057" r="1.815"/>
			<circle fill="#F4F4F4" cx="437.181" cy="77.369" r="1.815"/>
			<circle fill="#F4F4F4" cx="452.679" cy="61.395" r="1.815"/>
			<circle fill="#F4F4F4" cx="452.679" cy="39.324" r="1.815"/>
			<circle fill="#F4F4F4" cx="471.17" cy="62.396" r="1.815"/>
			<circle fill="#F4F4F4" cx="478.93" cy="45.253" r="1.815"/>
			<circle fill="#F4F4F4" cx="492.976" cy="23.365" r="1.815"/>
			<circle fill="#F4F4F4" cx="503.942" cy="39.324" r="1.815"/>
			<circle fill="#F4F4F4" cx="517.313" cy="23.365" r="1.815"/>
			<circle fill="#F4F4F4" cx="539.904" cy="29.037" r="1.815"/>
			<circle fill="#F4F4F4" cx="580.368" cy="18.176" r="1.815"/>
			<circle fill="#F4F4F4" cx="606.462" cy="46.128" r="1.815"/>
			<circle fill="#F4F4F4" cx="606.462" cy="27.222" r="1.815"/>
			<circle fill="#F4F4F4" cx="565.954" cy="63.082" r="1.815"/>
			<circle fill="#F4F4F4" cx="515.497" cy="92.464" r="1.815"/>
			<circle fill="#F4F4F4" cx="491.161" cy="82.623" r="1.815"/>
			<circle fill="#F4F4F4" cx="459.005" cy="111.331" r="1.815"/>
			<circle fill="#F4F4F4" cx="444.769" cy="87.875" r="1.815"/>
			<circle fill="#F4F4F4" cx="428.452" cy="104.126" r="1.815"/>
			<circle fill="#F4F4F4" cx="408.667" cy="98.605" r="1.815"/>
			<circle fill="#F4F4F4" cx="381.779" cy="104.126" r="1.815"/>
			<circle fill="#F4F4F4" cx="392.194" cy="92.087" r="1.815"/>
			<circle fill="#F4F4F4" cx="364.934" cy="103.053" r="1.815"/>
			<circle fill="#F4F4F4" cx="360.51" cy="107.756" r="1.815"/>
			<circle fill="#F4F4F4" cx="379.414" cy="127.989" r="1.815"/>
			<circle fill="#F4F4F4" cx="349.604" cy="130.14" r="1.815"/>
			<circle fill="#F4F4F4" cx="366.749" cy="146.403" r="1.815"/>
			<circle fill="#F4F4F4" cx="389.242" cy="142.772" r="1.815"/>
			<circle fill="#F4F4F4" cx="385.41" cy="159.877" r="1.815"/>
			<circle fill="#F4F4F4" cx="376.891" cy="154.092" r="1.815"/>
			<circle fill="#F4F4F4" cx="366.749" cy="163.507" r="1.815"/>
			<circle fill="#F4F4F4" cx="351.513" cy="167.816" r="1.815"/>
			<circle fill="#F4F4F4" cx="336.818" cy="142.772" r="1.815"/>
			<circle fill="#F4F4F4" cx="318.525" cy="171.447" r="1.815"/>
			<circle fill="#F4F4F4" cx="314.723" cy="186.489" r="1.815"/>
			<circle fill="#F4F4F4" cx="342.263" cy="186.489" r="1.815"/>
			<circle fill="#F4F4F4" cx="335.005" cy="195.4" r="1.815"/>
			<circle fill="#F4F4F4" cx="336.82" cy="218.847" r="1.815"/>
			<circle fill="#F4F4F4" cx="380.522" cy="203.875" r="1.815"/>
			<circle fill="#F4F4F4" cx="405.387" cy="243.553" r="1.815"/>
			<circle fill="#F4F4F4" cx="389.102" cy="273.674" r="1.815"/>
			<circle fill="#F4F4F4" cx="384.403" cy="294.201" r="1.815"/>
			<circle fill="#F4F4F4" cx="396.324" cy="286.069" r="1.815"/>
			<circle fill="#F4F4F4" cx="429.318" cy="296.626" r="1.815"/>
			<circle fill="#F4F4F4" cx="439.45" cy="289.699" r="1.815"/>
			<circle fill="#F4F4F4" cx="441.961" cy="269.176" r="1.815"/>
			<circle fill="#F4F4F4" cx="464.451" cy="272.806" r="1.815"/>
			<circle fill="#F4F4F4" cx="459.423" cy="241.738" r="1.815"/>
			<circle fill="#F4F4F4" cx="451.38" cy="290.571" r="1.815"/>
			<circle fill="#F4F4F4" cx="451.38" cy="302.072" r="1.815"/>
			<circle fill="#F4F4F4" cx="427.503" cy="331.653" r="1.815"/>
			<circle fill="#F4F4F4" cx="419.068" cy="318.438" r="1.815"/>
			<circle fill="#F4F4F4" cx="408.44" cy="335.283" r="1.815"/>
			<circle fill="#F4F4F4" cx="408.44" cy="310.888" r="1.815"/>
			<circle fill="#F4F4F4" cx="380.522" cy="228.651" r="1.815"/>
			<circle fill="#F4F4F4" cx="415.619" cy="221.738" r="1.815"/>
			<circle fill="#F4F4F4" cx="432.396" cy="182.119" r="1.815"/>
			<circle fill="#F4F4F4" cx="443.081" cy="243.553" r="1.815"/>
			<circle fill="#F4F4F4" cx="434.646" cy="167.816" r="1.815"/>
			<circle fill="#F4F4F4" cx="423.123" cy="148.218" r="1.815"/>
			<circle fill="#F4F4F4" cx="415.907" cy="129.804" r="1.815"/>
			<circle fill="#F4F4F4" cx="431.015" cy="123.239" r="1.815"/>
			<circle fill="#F4F4F4" cx="442.101" cy="141.527" r="1.815"/>
			<circle fill="#F4F4F4" cx="451.878" cy="126.376" r="1.815"/>
			<circle fill="#F4F4F4" cx="460.82" cy="145.158" r="1.815"/>
			<circle fill="#F4F4F4" cx="445.216" cy="166.001" r="1.815"/>
			<circle fill="#F4F4F4" cx="439.711" cy="171.447" r="1.815"/>
			<circle fill="#F4F4F4" cx="464.451" cy="189.747" r="1.815"/>
			<circle fill="#F4F4F4" cx="490.04" cy="159.877" r="1.815"/>
			<circle fill="#F4F4F4" cx="502.13" cy="146.403" r="1.815"/>
			<circle fill="#F4F4F4" cx="501.568" cy="115.638" r="1.815"/>
			<circle fill="#F4F4F4" cx="511.867" cy="168.8" r="1.815"/>
			<circle fill="#F4F4F4" cx="522.374" cy="154.18" r="1.815"/>
			<circle fill="#F4F4F4" cx="539.806" cy="144.587" r="1.815"/>
			<circle fill="#F4F4F4" cx="551.755" cy="154.18" r="1.815"/>
			<circle fill="#F4F4F4" cx="533.755" cy="167.791" r="1.815"/>
			<circle fill="#F4F4F4" cx="568.615" cy="189.747" r="1.815"/>
			<circle fill="#F4F4F4" cx="565.86" cy="166.001" r="1.815"/>
			<circle fill="#F4F4F4" cx="564.985" cy="145.158" r="1.815"/>
			<circle fill="#F4F4F4" cx="581.137" cy="119.269" r="1.815"/>
			<circle fill="#F4F4F4" cx="586.479" cy="141.527" r="1.815"/>
			<circle fill="#F4F4F4" cx="594.492" cy="159.877" r="1.815"/>
			<circle fill="#F4F4F4" cx="606.442" cy="135.061" r="1.815"/>
			<circle fill="#F4F4F4" cx="603.911" cy="99.915" r="1.815"/>
			<circle fill="#F4F4F4" cx="567.676" cy="86.981" r="1.815"/>
			<circle fill="#F4F4F4" cx="607.542" cy="85.166" r="1.815"/>
			<circle fill="#F4F4F4" cx="632.731" cy="89.934" r="1.815"/>
			<circle fill="#F4F4F4" cx="634.546" cy="47.943" r="1.815"/>
			<circle fill="#F4F4F4" cx="672.375" cy="29.624" r="1.815"/>
			<circle fill="#F4F4F4" cx="687.839" cy="59.287" r="1.815"/>
			<circle fill="#F4F4F4" cx="695.852" cy="37.918" r="1.815"/>
			<circle fill="#F4F4F4" cx="714.549" cy="55.656" r="1.815"/>
			<circle fill="#F4F4F4" cx="713.855" cy="81.536" r="1.815"/>
			<circle fill="#F4F4F4" cx="670.56" cy="63.504" r="1.815"/>
			<circle fill="#F4F4F4" cx="667.876" cy="101.73" r="1.815"/>
			<circle fill="#F4F4F4" cx="649.741" cy="92.323" r="1.815"/>
			<circle fill="#F4F4F4" cx="643.134" cy="121.986" r="1.815"/>
			<circle fill="#F4F4F4" cx="677.436" cy="115.638" r="1.815"/>
			<circle fill="#F4F4F4" cx="701.973" cy="115.638" r="1.815"/>
			<circle fill="#F4F4F4" cx="702.741" cy="131.43" r="1.815"/>
			<circle fill="#F4F4F4" cx="694.727" cy="123.801" r="1.815"/>
			<circle fill="#F4F4F4" cx="681.704" cy="145.158" r="1.815"/>
			<circle fill="#F4F4F4" cx="668.137" cy="146.739" r="1.815"/>
			<circle fill="#F4F4F4" cx="632.731" cy="179.553" r="1.815"/>
			<circle fill="#F4F4F4" cx="643.134" cy="199.166" r="1.815"/>
			<circle fill="#F4F4F4" cx="626.123" cy="193.964" r="1.815"/>
			<circle fill="#F4F4F4" cx="623.43" cy="212.626" r="1.815"/>
			<circle fill="#F4F4F4" cx="615.673" cy="218.847" r="1.815"/>
			<circle fill="#F4F4F4" cx="646.764" cy="233.093" r="1.815"/>
			<circle fill="#F4F4F4" cx="656.571" cy="218.847" r="1.815"/>
			<circle fill="#F4F4F4" cx="670.011" cy="265.882" r="1.815"/>
			<circle fill="#F4F4F4" cx="627.938" cy="247.901" r="1.815"/>
			<circle fill="#F4F4F4" cx="673.641" cy="235.905" r="1.815"/>
			<circle fill="#F4F4F4" cx="722.609" cy="261.21" r="1.815"/>
			<circle fill="#F4F4F4" cx="717.715" cy="239.404" r="1.815"/>
			<circle fill="#F4F4F4" cx="752.402" cy="267.439" r="1.815"/>
			<circle fill="#F4F4F4" cx="729.597" cy="274.645" r="1.815"/>
			<circle fill="#F4F4F4" cx="724.425" cy="296.449" r="1.815"/>
			<circle fill="#F4F4F4" cx="707.989" cy="292.818" r="1.815"/>
			<circle fill="#F4F4F4" cx="693.246" cy="277.278" r="1.815"/>
			<circle fill="#F4F4F4" cx="679.406" cy="336.314" r="1.815"/>
			<circle fill="#F4F4F4" cx="661.519" cy="317.546" r="1.815"/>
			<circle fill="#F4F4F4" cx="671.826" cy="292.818" r="1.815"/>
			<circle fill="#F4F4F4" cx="642.223" cy="311.483" r="1.815"/>
			<circle fill="#F4F4F4" cx="654.494" cy="325.587" r="1.815"/>
			<circle fill="#F4F4F4" cx="630.19" cy="336.314" r="1.815"/>
			<circle fill="#F4F4F4" cx="702.366" cy="350.995" r="1.815"/>
			<circle fill="#F4F4F4" cx="724.682" cy="354.43" r="1.815"/>
			<circle fill="#F4F4F4" cx="702.366" cy="306.876" r="1.815"/>
			<circle fill="#F4F4F4" cx="723.227" cy="317.685" r="1.815"/>
			<circle fill="#F4F4F4" cx="756.033" cy="327.402" r="1.815"/>
			<circle fill="#F4F4F4" cx="596.519" cy="173.104" r="1.815"/>
			<circle fill="#F4F4F4" cx="656.098" cy="133.264" r="1.815"/>
			<circle fill="#F4F4F4" cx="629.1" cy="149.4" r="1.815"/>
			<circle fill="#F4F4F4" cx="558.222" cy="208.866" r="1.815"/>
			<circle fill="#F4F4F4" cx="416.077" cy="115.638" r="1.815"/>
			<circle fill="#F4F4F4" cx="404.379" cy="109.515" r="1.815"/>
			<circle fill="#F4F4F4" cx="399.492" cy="121.424" r="1.815"/>
			<circle fill="#F4F4F4" cx="381.779" cy="108.498" r="1.815"/>
			<circle fill="#F4F4F4" cx="366.749" cy="113.692" r="1.815"/>
			<circle fill="#F4F4F4" cx="350.834" cy="90.272" r="1.815"/>
			<circle fill="#F4F4F4" cx="340.448" cy="103.052" r="1.815"/>
			<circle fill="#F4F4F4" cx="333.712" cy="121.424" r="1.815"/>
			<circle fill="#F4F4F4" cx="355.221" cy="123.239" r="1.815"/>
			<circle fill="#F4F4F4" cx="354.465" cy="104.868" r="1.815"/>
			<circle fill="#F4F4F4" cx="383.056" cy="75.554" r="1.815"/>
			<circle fill="#F4F4F4" cx="406.851" cy="75.554" r="1.815"/>
			<circle fill="#F4F4F4" cx="307.236" cy="29.155" r="1.815"/>
			<circle fill="#F4F4F4" cx="321.669" cy="20.975" r="1.815"/>
			<circle fill="#F4F4F4" cx="357.223" cy="0.79" r="1.815"/>
			<circle fill="#F4F4F4" cx="151.236" cy="43.951" r="1.815"/>
			<circle fill="#F4F4F4" cx="157.469" cy="61.208" r="1.815"/>
			<circle fill="#F4F4F4" cx="127.822" cy="114.731" r="1.815"/>
			<circle fill="#F4F4F4" cx="100.171" cy="111.817" r="1.815"/>
			<circle fill="#F4F4F4" cx="93.071" cy="128.995" r="1.815"/>
			<circle fill="#F4F4F4" cx="50.181" cy="128.995" r="1.815"/>
			<circle fill="#F4F4F4" cx="74.432" cy="147.432" r="1.815"/>
			<circle fill="#F4F4F4" cx="112.295" cy="153.055" r="1.815"/>
			<circle fill="#F4F4F4" cx="128.038" cy="137.094" r="1.815"/>
			<circle fill="#F4F4F4" cx="150.546" cy="118.271" r="1.815"/>
			<circle fill="#F4F4F4" cx="153.052" cy="138.91" r="1.815"/>
			<circle fill="#F4F4F4" cx="150.546" cy="162.052" r="1.815"/>
			<circle fill="#F4F4F4" cx="106.919" cy="168.8" r="1.815"/>
			<circle fill="#F4F4F4" cx="89.108" cy="182.275" r="1.815"/>
			<circle fill="#F4F4F4" cx="144.456" cy="201.003" r="1.815"/>
			<circle fill="#F4F4F4" cx="180.433" cy="200.939" r="1.815"/>
			<circle fill="#F4F4F4" cx="200.956" cy="212.287" r="1.815"/>
			<circle fill="#F4F4F4" cx="227.948" cy="224.096" r="1.815"/>
			<circle fill="#F4F4F4" cx="196.27" cy="229.719" r="1.815"/>
			<circle fill="#F4F4F4" cx="176.803" cy="215.917" r="1.815"/>
			<circle fill="#F4F4F4" cx="163.655" cy="218.847" r="1.815"/>
			<circle fill="#F4F4F4" cx="150.546" cy="218.847" r="1.815"/>
			<circle fill="#F4F4F4" cx="148.086" cy="227.904" r="1.815"/>
			<circle fill="#F4F4F4" cx="163.655" cy="232.156" r="1.815"/>
			<circle fill="#F4F4F4" cx="178.838" cy="232.097" r="1.815"/>
			<circle fill="#F4F4F4" cx="185.568" cy="264.154" r="1.815"/>
			<circle fill="#F4F4F4" cx="206.767" cy="258.21" r="1.815"/>
			<circle fill="#F4F4F4" cx="234.133" cy="257.461" r="1.815"/>
			<circle fill="#F4F4F4" cx="239.569" cy="274.893" r="1.815"/>
			<circle fill="#F4F4F4" cx="247.442" cy="288.892" r="1.815"/>
			<circle fill="#F4F4F4" cx="239.569" cy="303.151" r="1.815"/>
			<circle fill="#F4F4F4" cx="253.77" cy="299.521" r="1.815"/>
			<circle fill="#F4F4F4" cx="233.782" cy="312.412" r="1.815"/>
			<circle fill="#F4F4F4" cx="221.579" cy="341.626" r="1.815"/>
			<circle fill="#F4F4F4" cx="201.321" cy="326.44" r="1.815"/>
			<circle fill="#F4F4F4" cx="194.958" cy="353.619" r="1.815"/>
			<circle fill="#F4F4F4" cx="210.498" cy="347.126" r="1.815"/>
			<circle fill="#F4F4F4" cx="179.875" cy="353.244" r="1.815"/>
			<circle fill="#F4F4F4" cx="193.143" cy="392.173" r="1.815"/>
			<circle fill="#F4F4F4" cx="205.174" cy="392.444" r="1.815"/>
			<circle fill="#F4F4F4" cx="220.75" cy="403.232" r="1.815"/>
			<circle fill="#F4F4F4" cx="265.331" cy="256.395" r="1.815"/>
			<circle fill="#F4F4F4" cx="246.412" cy="243.521" r="1.815"/>
			<circle fill="#F4F4F4" cx="204.951" cy="294.012" r="1.815"/>
			<circle fill="#F4F4F4" cx="178.618" cy="313.319" r="1.815"/>
			<circle fill="#F4F4F4" cx="204.951" cy="310.34" r="1.815"/>
			<circle fill="#F4F4F4" cx="173.172" cy="287.077" r="1.815"/>
			<circle fill="#F4F4F4" cx="174.152" cy="247.151" r="1.815"/>
			<circle fill="#F4F4F4" cx="146.598" cy="245.581" r="1.815"/>
			<circle fill="#F4F4F4" cx="153.345" cy="264.154" r="1.815"/>
			<circle fill="#F4F4F4" cx="132.896" cy="179.002" r="1.815"/>
			<circle fill="#F4F4F4" cx="94.886" cy="34.404" r="1.815"/>
			<circle fill="#F4F4F4" cx="119.676" cy="53.523" r="1.815"/>
			<circle fill="#F4F4F4" cx="117.356" cy="32.588" r="1.815"/>
			<circle fill="#F4F4F4" cx="87.576" cy="42.136" r="1.815"/>
		</g>
	</g>
</g>
</svg>
