<svg viewBox="0 0 39.21 52.23" xmlns="http://www.w3.org/2000/svg"><path d="M30.46 36a2 2 0 01-1-3.73l4.12-2.37-7-5.68a2 2 0 112.5-3.1l9.29 7.5a2 2 0 01-.25 3.28l-6.65 3.83a2 2 0 01-1.01.27zM2.09 52.12a2 2 0 01-2-2V37.65a2 2 0 011-1.72l8.12-4.72a2 2 0 112 3.45L4.09 38.8V47c4.51-2.29 10-5.9 11.08-9 1.5-4.26 1.22-16.8.94-22.32L4.09 6.2v10.57l2.85-1.65a2 2 0 112 3.45L3.09 22a2 2 0 01-2 0 2 2 0 01-1-1.73V2.09A2 2 0 013.33.52l16 12.57a2 2 0 01.76 1.45c.11 1.9 1 18.69-1.11 24.77C16.6 46 4.27 51.37 2.87 52a1.91 1.91 0 01-.78.12z"/></svg>